<svg xmlns="http://www.w3.org/2000/svg" width="210" height="210"><path fill="#515E56" d="m104.75 10.688 3.75.014c8.88.114 16.944.781 25.5 3.298l3.7 1.031C151.511 19.233 163.721 25.996 175 35l2.324 1.824C194.174 50.851 205.344 72.301 208 94c.657 12.307.475 24.115-3 36l-.809 3.023c-6.975 23.623-25.154 41.954-46.137 53.874-23.922 12.848-54.886 16.699-81.062 9.357-1.333-.41-2.664-.829-3.992-1.254l-2.054-.633c-25.08-7.923-45.738-24.715-58.008-48.043C2 124.98-1.007 100.464 6.395 77.364c9.065-25.585 27.219-44.75 51.49-56.663 14.997-7.013 30.349-10.091 46.865-10.014Z"/><path fill="#A9A484" d="m77 73 1 52 3-2-3-1v-7h6l1-42h1v58h8l-1-22-5 1v-5l5-1 .184-2.957.254-3.856.246-3.832C94 90 94 90 95 87c8.526-.314 15.753-.114 23.992 2.266C124.25 90.549 129.61 90.748 135 91v-7l-4-1v-6a221.86 221.86 0 0 1 6.434 2.113c1.605.555 3.221 1.079 4.851 1.555 6.65 2.31 9.678 6.652 13.574 12.36 3.408 4.73 7.347 8.22 12.016 11.66 5.233 4.129 8.603 8.708 12.125 14.312l1.61 2.273 1.452 2.102 1.286 1.836C185 127 185 127 184.12 129.227L183 131h4v4h-9v4l-14 1-1 4-1-2c-2.527-.656-2.527-.656-5-1v-2h6v-2l6-1c-2.79-1.105-2.79-1.105-5-1h-5v-3h-13v2h6l-1 2c-7.085-.668-7.085-.668-10-4-2.103-.714-2.103-.714-4-1v2h3l2 7-7 1v-4h-3v6c-5.625 3-5.625 3-9 3 1.67 3.041 1.67 3.041 4 4 .625 2.563.625 2.563 1 5-4.167.03-8.333.047-12.5.063l-3.555.025c-9.82.027-9.82.027-14.172-.592-4.584-.603-9.033-.564-13.648-.496-6.13.06-12.086.044-18.152-.977-2.064-.155-2.064-.155-4.155.895-3.284 1.261-6.403 1.811-9.877 2.371l-2.02.328c-1.404.226-2.808.45-4.213.67-2.137.337-4.27.684-6.405 1.033-1.37.22-2.741.439-4.112.657l-3.743.596c-3.235.4-6.198.695-9.448.427-3.938-3.838-6.525-8.28-9.063-13.125l-1.039-1.968C8.352 138.014 5 130.847 5 123l26-1 1-6h1v7h7v12h2v-21c-3.589.03-3.589.03-7.25.063-18.504.06-18.504.06-22.75-2.063v-5h11v4h4v-11h-2l-1 3v-4l-3-1h6V79l5 2v4h2v-6h5v21h2V78l-8-1v-1c1.48.14 2.959.288 4.438.438l2.496.246C42 77 42 77 43 78c.16 2.664.26 5.306.316 7.973l.063 2.417c.066 2.557.125 5.115.184 7.672l.13 5.19c.108 4.25.209 8.499.307 12.748l5 2 1-40 2 1v25h2v11h2c.168-4.955.202-8.467-2-13l-1-3h5V75h1v61h7v-2h-2l1-2c1.28-12.601 1.297-25.347 1.563-38l.13-5.852c.106-4.716.208-9.432.307-14.148 2-1 2-1 10-1Z"/><path fill="#B7B1A8" d="M137 131c4.75.75 4.75.75 7 3h2v-2h13v3l8-2v1l9 2-1 2-12-1v2h-6v2l2.438-.063C162 141 162 141 163 142l1.113-1.488c2.695-2.16 4.674-1.81 8.075-1.7l3.292.083L178 139l1-4 2 4h5l-1 7 5 1-2 2h3l1-2h4v-2h2c-5.553 19.087-25.248 33.871-41.988 43.113C130.852 200.553 99.796 203.575 73 195l-2.054-.633C51.636 188.267 34.718 176.827 22 161v-1l3.317-.519a5006.67 5006.67 0 0 0 12.216-1.935c1.76-.28 3.52-.556 5.282-.832 2.535-.396 5.07-.8 7.603-1.206l2.374-.367c3.185-.516 5.958-1.04 8.96-2.259 2.601-1.02 4.048-.926 6.787-.507 5.964.752 11.833.7 17.836.625 2.112-.026 4.224-.047 6.336-.063l2.79-.035c2.353.092 4.23.527 6.499 1.098 2.024.146 4.05.247 6.078.316l3.516.127 3.656.12 3.703.13c3.016.106 6.031.208 9.047.307-.781-2.496-.781-2.496-2-5l-3-1c-.688-2.063-.688-2.063-1-4l2-1v2l2.875-1.5C130 143 130 143 132 143v-6h3v4l7-1-2-3v-4h-3v-2Z"/><path fill="#AD8786" d="M100 12v2l-3 1c-1.209 2-1.209 2-2 4l-5-1v7h-2v-7l-10 2 2.438 1.313C83 23 83 23 84 26l-2.875-.625L78 25l-2 2h-3v2l-4 1 2 3c.125 3.188.125 3.188 0 6h-3v2h-3l-1 3-2-1-1 17 4 1v2h-3l.563 1.875C63 67 63 67 62 69l4 1 1-2v2c2.51-1.255 2.871-2.5 4-5l1.934.035 2.504.028 2.496.035c2.058.135 2.058.135 3.066-1.098a99.984 99.984 0 0 1 5 0v3l7 1-1 3 2 1v8h-6v6h6v19h-5v4l1.938-.563L93 108c1 1 1 1 1.114 3.133l-.016 2.777-.01 2.998-.025 3.154-.014 3.167c-.012 2.59-.028 5.18-.049 7.771h-8l-1-22-1 6h-6v3l2 1-2 3 4 1-3 2c-.733 3.066-.733 3.066-1 6h-1V73l-10 1 .016 3.586c.018 4.475.03 8.95.039 13.424.005 1.921.012 3.842.02 5.763.054 12.12-.214 24.136-1.075 36.227v3h-7l-1-39h-5l1.438 1.75c2.587 3.725 2.683 7.038 2.624 11.5l-.027 2.703L57 115l-1-2h-2v-11h-2v14h-1l.016-3.564c.018-4.348.03-8.696.039-13.044.005-1.884.012-3.77.02-5.654.013-2.703.018-5.406.023-8.11l.015-2.569c0-2.02-.05-4.04-.113-6.059l-1-1 .016 2.81c.017 3.475.03 6.948.039 10.422.005 1.498.012 2.995.02 4.493.013 2.164.018 4.329.023 6.494l.016 3.935c-.12 4.027-.554 7.86-1.114 11.846-4.875-.875-4.875-.875-6-2-.16-2.664-.26-5.306-.316-7.973l-.063-2.417a2852.25 2852.25 0 0 1-.184-7.672l-.13-5.19c-.108-4.25-.209-8.499-.307-12.748h-1v22h-2V79h-5v6h-2v-4l-5-2v19l-3 1 3 1v11h-4v-4H12v5c11.98.859 11.98.859 23.984.938C38 113 38 113 42 114v21h-2v-12H4c-4.296-23.694-.142-47.715 13.21-67.821C32.171 33.827 54.47 18.69 80 13c2.981-.24 5.785-.282 8.766-.078 3.81.133 7.343-1.03 11.234-.922Z"/><path fill="#41483E" d="M144 22h4l-2 4 3 1-5 2v2l7-1v3l3 1h-2v2l6 1 1-2 1 3-3 1 1 3h4v-2h2l-3 6h2v2l3-3-2-1c2.386-1.892 4.072-3.024 7-4v-3h2v2c.89-.26 1.781-.518 2.7-.785C179 38 179 38 181.456 39.816l2.356 2.746 1.281 1.495C202.602 65.04 209.501 88.93 208 116c-.56 4.775-1.683 9.38-3 14l-.645 2.402c-.424 1.54-.883 3.072-1.355 4.598-6.875-.875-6.875-.875-8-2-2-.04-4-.043-6 0l1-2.313c1.174-2.678 1.174-2.678 1-5.687l-1.762-.68c-2.887-1.703-4.162-3.684-6.05-6.445-5.383-7.596-10.149-13.379-18.032-18.387-3.38-2.332-6.183-4.852-8.156-8.488-.468-2.865-.308-5.075 0-8h3a1135.59 1135.59 0 0 0-.438-4.75c-.08-.882-.162-1.763-.246-2.672A44.11 44.11 0 0 0 158 71l-3 1-.402-2.484-.536-3.266-.527-3.234c-.422-2.38-.907-4.685-1.535-7.016l-3.313.188C145 56 145 56 143.063 54.624 142 53 142 53 142 51l-4-1v-4l4-1 1.063 3.438c.73 1.955.73 1.955 1.937 3.562 3.589 1.062 3.589 1.062 7 1l-5-7 1-2c4.875 4.625 4.875 4.625 6 8h2l-1-12h-4v3h-2v-2l-2-1v-5h-7c.613-2.962 1.254-4.38 3-7l-4 2v-4h2v-3l3 1v-2Z"/><path fill="#37393C" d="M131 77a221.86 221.86 0 0 1 6.434 2.113c1.605.555 3.221 1.079 4.851 1.555 6.65 2.31 9.678 6.652 13.574 12.36 3.408 4.73 7.347 8.22 12.016 11.66 5.233 4.129 8.603 8.708 12.125 14.312l1.61 2.273 1.452 2.102 1.286 1.836C185 127 185 127 184.12 129.227L183 131h4v4h-9v4l-14 1-1 4-1-2c-2.527-.656-2.527-.656-5-1v-2h6v-2l6-1c-2.79-1.105-2.79-1.105-5-1h-5v-3h-13v2h6l-1 2c-6.674-.63-6.674-.63-8.343-2.525-2.501-2.227-4.564-1.814-7.856-1.768l-3.662.03-3.827.076-3.86.04c-3.152.036-6.302.085-9.452.147v-2h2l-1.468-.976c-2.39-3.157-2.013-6.6-2.044-10.41l-.054-2.477a981.621 981.621 0 0 1-.121-7.825c-.034-1.768-.068-3.537-.104-5.306-.085-4.335-.152-8.67-.209-13.006l-4-1v43h-1V94l-9-2-3-3v-2c8.526-.314 15.753-.114 23.992 2.266C124.25 90.549 129.61 90.748 135 91v-7l-4-1v-6Z"/><path fill="#3B4242" d="M136 38c1.313 2.625 1.313 2.625 2 5l1-3h5v-2h4l1 5h2v-3l4-1c1.102 4.41 1.077 8.484 1 13h-2l-4-6h-2l2 2.375C152 51 152 51 152 53c-3.375.125-3.375.125-7 0-2.565-2.565-2.54-4.477-3-8l-4 1c.267 1.985.267 1.985 1 4l3 1c.688 2.063.688 2.063 1 4l1.898.078 2.477.172 2.46.14C152 56 152 56 153.22 57.688c.904 2.676 1.442 5.278 1.906 8.063l.508 2.984L156 71h2c1.906 3.212 2.223 5.539 2.125 9.25l-.055 2.703L160 85h-3c.114 6.367 1.531 9.525 5.91 14.137 2.74 2.442 5.714 4.291 8.817 6.234 5.967 4.275 10.44 10.437 14.273 16.629 2.007 3.01 2.839 3.63 6 5a84.76 84.76 0 0 1-2 7l2.063-.125c3.536.15 6.57 1.069 9.937 2.125-.498 3.735-.875 5.812-3 9h-3v2h-4l-1 3-4-1 1-1-4-2 2-7h-5l-2-4h8v-4l-4 1c0-3 0-3 1-6-1.489-2.578-1.489-2.578-3.625-5.25-2.392-3.14-4.727-6.252-6.875-9.563-3.362-4.748-8.322-7.7-13.063-10.937-4.247-3.921-8.184-9.1-10.332-14.5-.973-1.985-.973-1.985-3.304-2.309-.924-.145-1.849-.29-2.801-.441a174.194 174.194 0 0 1-6.813-3.063l-3.519-1.66L131 77v6l4 1v7c-7.738.337-14.345-.15-21.79-2.266C107.228 87.366 101.12 87.242 95 87l-1 3v-4c2.293-1.147 3.8-1.197 6.352-1.316l2.578-.127 2.695-.12 2.719-.13c2.218-.107 4.437-.209 6.656-.307 1.15-1.925 1.15-1.925 1-4l3-1 2 1v-2h-13v-6l1.688.586A163.739 163.739 0 0 0 125 77a1012.92 1012.92 0 0 0-.438-4.813c-.08-.893-.162-1.786-.246-2.707-.25-2.607-.25-2.607-1.316-5.48h-5v5h-2v-3l-7-1v-2h-7l1-3 2-1-5-1-.188-2.875L99 52c-2.463-1.453-2.463-1.453-5-2v-4l3 1 3-3 3 1v2h3v-3l7-2 2 4 1-3h2v3l3 1 1-3h4l-1-4h2v2h2v4l6-1-2-7-2 4-3-1c-.688-2.063-.688-2.063-1-4 3.601-1.334 5.688-.917 9 1Z"/><path fill="#FAFCFC" d="M100 12v2l-3 1c-1.209 2-1.209 2-2 4l-5-1v7h-2v-7l-10 2 2.438 1.313C83 23 83 23 84 26l-2.875-.625L78 25l-2 2h-3v2l-4 1 2 3c.125 3.188.125 3.188 0 6h-3v2h-3l-1 3-2-1-1 20c-11.508 5.754-24.457 2.194-35.906-1.52C21.147 60.147 21.147 60.147 20 59c-.517-4.95-.647-7.018 2.133-11.238a95.968 95.968 0 0 1 2.992-3.075c.54-.551 1.078-1.103 1.634-1.672 13.776-13.778 35.496-29.597 55.897-30.078l5.688.126C92.348 12.967 95.938 11.886 100 12Z"/><path fill="#323D49" d="M33 76c1.48.14 2.959.288 4.438.438l2.496.246C42 77 42 77 43 78c.16 2.664.26 5.306.316 7.973l.063 2.417c.066 2.557.125 5.115.184 7.672l.13 5.19c.108 4.25.209 8.499.307 12.748l5 2v-8h1v9h8c.027 2.958.047 5.917.063 8.875l.025 2.55.01 2.442.016 2.254C58 135 58 135 57 137h9v14h-2l-1-3c-4.394-.857-8.526-1.09-13-1l-2-6-1.875.563C44 142 44 142 42 141v-4l-3.313.563C35 138 35 138 32 137v2l-11 2-1-3h-5l-1 3h-4c-.841-2.247-1.673-4.497-2.5-6.75l-.723-1.922C5.552 128.968 5 126.631 5 123l26-1 1-6h1v7h7v12h2v-21c-3.589.03-3.589.03-7.25.063-18.504.06-18.504.06-22.75-2.063v-5h11v4h4v-11h-2l-1 3v-4l-3-1h6V79l5 2v4h2v-6h5v21h2V78l-8-1v-1Z"/><path fill="#393933" d="M144 22h4l-2 4 3 1-5 2v2l7-1v3l3 1h-2v2l6 1 1-2 1 3-3 1 1 3h4v-2h2l-3 6h2v2l3-3-2-1c2.386-1.892 4.072-3.024 7-4v-3h2v2l4-1 1 2-7 1-.25 2.313c-.903 3.234-1.886 4.038-4.75 5.687h-2l1 4-2-1c-.625-2.563-.625-2.563-1-5-2.523 1.974-2.993 2.967-3.688 6.188L158 56h-2l1 6 1-5c3.988.57 6.624 1.836 10 4 1.326.681 2.657 1.353 4 2h-2l-1 3-3-1-2 7h2v-3l4-1v7h2V64c1.754 3.508 2.366 5.315 2.75 9.063l.297 2.597C175 78 175 78 173 81c3.778-4.722 3.301-9.26 3-15 3.083 1.199 6.063 2.477 9 4v2h-2l1 6 1-4h2l1-2v7h3l1-2 .55 1.715.762 2.222.739 2.215c.861 2.207.861 2.207 3.949 2.848v-2h3l1 8 3 1-3 9h-2a337.023 337.023 0 0 1-1.563-4.313l-.878-2.425C197 93 197 93 198 90l-2-1v-2l-5-2 .625 2.375L192 90l-2 2 2.313.188C195 93 195 93 196.75 95.061c2.7 6.344 2.391 13.158 2.25 19.938l-4 1c-4.246-8.534-7.285-17.381-7-27h2v-3l-5 1-1 14h2v-5c2 2 2 2 2.195 4.383l-.07 2.742-.055 2.758L188 108h2c.532 1.433 1.05 2.872 1.563 4.313l.878 2.425C193 117 193 117 192 120l-1.32-1.906c-3.389-4.87-6.821-9.662-10.516-14.305-1.252-1.924-1.74-3.546-2.164-5.789l2-1-.063-2.875C180 91 180 91 181 89l-3 1-1-10-3 17h2v5c-4.875-2.875-4.875-2.875-6-4 6.194 6.017 11.073 11.328 13 20-2.784-2.703-5.334-5.4-7.75-8.438-2.329-2.778-4.684-4.633-7.75-6.562-4.254-2.72-8.05-5.484-10.5-10-.468-2.865-.308-5.075 0-8h3a1135.59 1135.59 0 0 0-.438-4.75c-.08-.882-.162-1.763-.246-2.672A44.11 44.11 0 0 0 158 71l-3 1-.402-2.484-.536-3.266-.527-3.234c-.422-2.38-.907-4.685-1.535-7.016l-3.313.188C145 56 145 56 143.063 54.624 142 53 142 53 142 51l-4-1v-4l4-1 1.063 3.438c.73 1.955.73 1.955 1.937 3.562 3.589 1.062 3.589 1.062 7 1l-5-7 1-2c4.875 4.625 4.875 4.625 6 8h2l-1-12h-4v3h-2v-2l-2-1v-5h-7c.613-2.962 1.254-4.38 3-7l-4 2v-4h2v-3l3 1v-2Z"/><path fill="#A96D57" d="M85 73h1v58h8l-1-22-5 1v-5l5-1 1-14h4v2l9 2 1-5 5 1 .06 3.241c.076 3.974.165 7.947.257 11.92.039 1.719.073 3.438.105 5.156.046 2.473.104 4.945.164 7.417l.035 2.324c.104 3.774.273 6.736 2.379 9.942h-2v2l23-1v2h3l2 7-7 1v-4h-3v6h-2v-3c-5.856-.113-5.856-.113-10.828 2.59a68.93 68.93 0 0 0-2.883 3.816C115 148 115 148 112 149c-2.333.04-4.667.044-7 0v-2l5 1 1-3-3.875-.063-2.18-.035c-2.027-.028-2.027-.028-3.945 1.098v-9h30v-4H85V73Z"/><path fill="#778D7B" d="M138 16c-5.75 1.125-5.75 1.125-8 0v3h-2l-1 3-2-1-3 1-2-3c-3.741-1.975-6.81-2.195-11-2l-1 6h-2l-.332 1.934-.48 2.503-.458 2.497L104 32l-3 1 1-4h-2l2-6h-1a530 530 0 0 1-5-1l-.402 2.266-.535 2.984-.528 2.953c-.439 2.294-.938 4.54-1.535 6.797h3a128.606 128.606 0 0 1-2 7l-2 1v6l-3-1 1-5-5 1-1 5h-3l-1-3-5-1v2l-2 1h3l3 1c-1.188 1.563-1.188 1.563-3 3a88.406 88.406 0 0 1-5-1l-2 2h-4l1 2-5 1V42l3 1 1-2h3v-2h3l-2-9 4-1v-2c5.415-3.077 5.415-3.077 8.375-2.688L83 25v-2l-2.438-.875C78 21 78 21 77 19l11-1v7h2v-7l5 1 2-5h3v-2l-1.723.473C93.081 13.783 89.246 14.116 84 13v-1c16.023-2.922 39.238-4.162 54 4Z"/><path fill="#5B4C51" d="M77 73v64h21v9c-1 1-1 1-4.563 1.063L90 147v-3l-1.836.219c-6.082.673-12.047.898-18.164.781l-.586-6.152L69 137l-2-1v14h-1v-13h-9a1303.71 1303.71 0 0 1-.063-6.625l-.035-3.727c.09-3.325.461-6.388 1.098-9.648h-8V76l2 1v25h2v11h2c.168-4.955.202-8.467-2-13l-1-3h5V75h1v61h7v-2h-2l1-2c1.28-12.601 1.297-25.347 1.563-38l.13-5.852c.106-4.716.208-9.432.307-14.148 2-1 2-1 10-1Z"/><path fill="#0E111A" d="M131 77c16.836 5.254 16.836 5.254 20 10-.556 5.556-.556 5.556-2 7-.16 2.737-.26 5.452-.316 8.191l-.063 2.485c-.066 2.629-.125 5.258-.184 7.886l-.13 5.334c-.108 4.368-.209 8.736-.307 13.104h-2v-28h-2l-1 3-5 2v17c-2.846-2.846-2.456-5.804-2.625-9.625l-.117-2.14c-.094-1.745-.177-3.49-.258-5.235h-2v-3h-2l1 5-1-2-3 1v-5l-3 2c-1.644-3.289-1.399-6.933-1.621-10.566L123 93l-2-1v39l3 1h-10v-2h2l-1.468-.976c-2.39-3.157-2.013-6.6-2.044-10.41l-.054-2.477a981.621 981.621 0 0 1-.121-7.825c-.034-1.768-.068-3.537-.104-5.306-.085-4.335-.152-8.67-.209-13.006l-4-1v43h-1V94l-9-2-3-3v-2c8.526-.314 15.753-.114 23.992 2.266C124.25 90.549 129.61 90.748 135 91v-7l-4-1v-6Z"/><path fill="#4F565E" d="M13 72c1.726.14 3.45.286 5.176.434l2.911.243C25.16 73.128 29.024 74.022 33 75v2l8 1v22h-2V79h-5v6h-2v-4l-5-2v19l-3 1 3 1v11h-4v-4H12v5c11.98.859 11.98.859 23.984.938C38 113 38 113 42 114v21h-2v-12H20l-1-7-6-1v-2h-2c-.337-13.763.7-27.303 2-41Z"/><path fill="#A8B5C6" d="M19 53h1l1 6 10 3v2l1.863.402 2.45.535 2.425.528C40 66 40 66 43 67v11c-10.084-1.703-20.063-3.563-30-6l.035 1.855c.085 8.308-.444 16.551-1.035 24.832l-.29 4.186c-.233 3.376-.47 6.752-.71 10.127h2v2l2.938-.063C19 115 19 115 20 116v7H4c-4.006-24.037-.268-48.169 13.68-68.441L19 53Z"/><path fill="#697565" d="M136 38c1.313 2.625 1.313 2.625 2 5l1-3h5v-2h4l1 5h2v-3l4-1c1.102 4.41 1.077 8.484 1 13h-2l-4-6h-2l2 2.375C152 51 152 51 152 53c-3.375.125-3.375.125-7 0-2.565-2.565-2.54-4.477-3-8l-4 1c.267 1.985.267 1.985 1 4l3 1c1.147 2.293 1.197 3.8 1.316 6.352l.127 2.578.12 2.695.13 2.719c.107 2.218.209 4.437.307 6.656h-2l-1-3c-1.783-.584-1.783-.584-4-1a371.894 371.894 0 0 1-5.813-2.563c-4.733-2.016-8.09-3.016-13.187-2.437v-7l5 1 1-4h2l1-2 5 2v2h2l-.563-1.75c-.477-2.457-.194-3.894.563-6.25h-3l1 4c-2.375-.313-2.375-.313-5-1l-2-3h-2l1 4h-5l-1 3c-2.944 1.178-3.9 1.033-7 0v2c-2 2-2 2-4.164 2.195l-2.461-.07-2.477-.055L100 58l-.188-2.875L99 52c-2.463-1.453-2.463-1.453-5-2v-4l3 1 3-3 3 1v2h3v-3l7-2 2 4 1-3h2v3l3 1 1-3h4l-1-4h2v2h2v4l6-1-2-7-2 4-3-1c-.688-2.063-.688-2.063-1-4 3.601-1.334 5.688-.917 9 1Z"/><path fill="#816A75" d="M86 64v3l7 1-1 3 2 1v8h-6v6h6v19h-5v4l1.938-.563L93 108c1 1 1 1 1.114 3.133l-.016 2.777-.01 2.998-.025 3.154-.014 3.167c-.012 2.59-.028 5.18-.049 7.771h-8l-1-22-1 6h-6v3l2 1-2 3 4 1-3 2c-.733 3.066-.733 3.066-1 6h-1V86l4-1v-2h-2l.625-3.25c.363-3.626.359-4.833-1.625-7.75h3c-.195-1.95-.195-1.95-1-4-1.984-1.284-1.984-1.284-4-2 3.508-1.604 6.144-2.22 10-2Z"/><path fill="#393A34" d="M151 88c2.487 2.352 4.678 4.427 6.363 7.426 1.85 2.909 3.768 4.505 6.512 6.574 6.467 5.023 11.414 10.338 16.125 17l1.563 2.152L183 123.25l1.313 1.89c.687 1.86.687 1.86-.188 4.094L183 131h4v4h-9v4l-14 1-1 4-1-2c-2.527-.656-2.527-.656-5-1v-2h6v-2l6-1c-2.79-1.105-2.79-1.105-5-1h-5v-3l-6-1 1-2h2v-2h3a976.13 976.13 0 0 0-.25-12.25l-.043-3.512-.098-3.379-.063-3.11c-.67-3.373-1.945-4.583-4.546-6.749l-.813 3.438L152 105l-3 1c-1.792-5.376-1.696-10.375.5-15.5L151 88Z"/><path fill="#677867" d="M109 16c4.749-.457 8.645.03 13 2l1 3 3-1 1 1 1-2h2v-3c13.98-1.866 27.757 6.432 39 14a107.77 107.77 0 0 1 8 7l-4 2v-2h-2v3l-2 1-1 2-3 1v4h-2v-2h-2l3-6h-2v2h-4l-2-4 2-1-2.938-.375L152 36l-1-2-2-3c-2.584-.25-2.584-.25-5 0v-2l4-2-2-1c1-3 1-3 2-4h-4l1 3c-3-1-3-1-4-2v3h-2l1 3 3-1-.938 1.813C140.899 32.09 140.899 32.09 140 35h7l-1 3-3-1v2c-2.875-.313-2.875-.313-6-1l-2-3 1-1v-2l2-1-3-1v2h-2v-5h-4l-1 2v-3h-2v-2c-3.726 1.119-3.726 1.119-6 4-5.222 2-5.222 2-8 2l-3 2-2 1-1-3 1.938-.75c2.25-1.066 2.25-1.066 2.812-3.375L111 24l-5 4-1-2 1-3h2l-.625-1.813C107 19 107 19 109 16Z"/><path fill="#131315" d="M32 116h1v7h7v12l26 2v14h-2l-1-3c-4.394-.857-8.526-1.09-13-1l-2-6-1.875.563C44 142 44 142 42 141v-4l-3.313.563C35 138 35 138 32 137v2l-11 2-1-3h-5l-1 3h-4c-.841-2.247-1.673-4.497-2.5-6.75l-.723-1.922C5.552 128.968 5 126.631 5 123l26-1 1-6Z"/><path fill="#332F29" d="M176 66c3.083 1.199 6.063 2.477 9 4v2h-2l1 6 1-4h2l1-2v7h3l1-2 .55 1.715.762 2.222.739 2.215c.861 2.207.861 2.207 3.949 2.848v-2h3l1 8 3 1-3 9h-2a337.023 337.023 0 0 1-1.563-4.313l-.878-2.425C197 93 197 93 198 90l-2-1v-2l-5-2 .625 2.375L192 90l-2 2 2.313.188C195 93 195 93 196.75 95.061c2.7 6.344 2.391 13.158 2.25 19.938l-4 1c-4.246-8.534-7.285-17.381-7-27h2v-3l-5 1-1 14h2v-5c2 2 2 2 2.195 4.383l-.07 2.742-.055 2.758L188 108h2c.532 1.433 1.05 2.872 1.563 4.313l.878 2.425C193 117 193 117 192 120l-1.32-1.906c-3.389-4.87-6.821-9.662-10.516-14.305-1.252-1.924-1.74-3.546-2.164-5.789l2-1-.063-2.875C180 91 180 91 181 89l-3 1-1-10-3 17-5-4v-4h2c.687-2.49 1-4.379 1-7 .979-1.021 1.98-2.02 3-3 1.005-3.015 1.103-5.042 1.063-8.188l-.028-2.73L176 66Z"/><path fill="#5A7E68" d="M20 132h1l1 8 10-1v-2h2l1-2v3l7-1 2 3 1.938.438c2.778.757 3.538 2.2 5.062 4.562l-1 2 1.828-.29 2.422-.335 2.39-.352c2.682-.026 4.087.611 6.36 1.977l-5 1v3a48.252 48.252 0 0 1-7.984 1.465l-2.314.233-2.452.24c-8.769.886-17.51 1.929-26.25 3.062-1.339-2.289-2.671-4.58-4-6.875l-1.156-1.973C11 143.227 11 143.227 11 141l3-1 1-2h5v-6Z"/><path fill="#323C44" d="M91 52h2v2l5-1 1 6 8-1-5 5 1.813-.563C106 62 106 62 109 63v2l3-1c2.188.938 2.188.938 4 2v3h2v-5c2.375-.188 2.375-.188 5 0 2.21 3.314 2.225 4.345 2.125 8.188l-.055 2.73L125 77c-6.401-.466-11.268-2.147-17-5v6h13v2l-4 1v3h-2c-1.358.135-2.715.283-4.07.438l-2.47.273c-1.7.19-3.4.383-5.1.578A119.1 119.1 0 0 1 88 86v-6h7v-9h1v8h5c.027-1.625.046-3.25.063-4.875l.035-2.742c.064-2.4.064-2.4-1.098-4.383v-1l-3-2v-2l-3-2v-2l-3 2h-3c.75-5.75.75-5.75 3-8Z"/><path fill="#5A5955" d="m170 44 5 1v2l3 1v5l-3 1 1 3h2l1-3h1v-5l2 1 1-2h2c1.374 3.818.68 7.073 0 11h4l1 3h2l-1 1.75c-1.27 2.449-1.27 2.449-1 6.25-2.996.889-4.516 1.196-7.457.004l-2.356-1.442-2.394-1.433L176 66l1 2c.35 5.342.456 8.648-3 13l-3 2 .938-1.688c2.17-4.724 2.122-8.25 1.062-13.312l-1 7h-2v-4l-2-1 1-1h-3v3h-2l2-7h3l1-2c-3.938-2.317-7.692-4.434-12-6v6l-2-1c-.597-5.823 1.472-9.92 4-15h2l2 4v-2a264.271 264.271 0 0 1 5-3l1-2Z"/><path fill="#5A544B" d="M177 79h1l1 10h2v9h-3c2.008 3.425 4.14 6.7 6.438 9.938A411.691 411.691 0 0 1 192 119l-2-11h-2l-1-10-1 3h-2a710.49 710.49 0 0 1-.125-6.813l-.07-3.832C184 87 184 87 186 84v2h4v3h-2c.98 6.165 2.18 12.03 4.27 17.918 1.05 2.992 1.885 6.027 2.73 9.082l3-1c.158-7.573.282-14.997-3-22h-6l1-2.313c1.174-2.678 1.174-2.678 1-5.687l5 2v2l3 1-2 1 1.375 2.563c3.17 7.316 3.821 16.55 3.625 24.437h1c.125 6.75.125 6.75-1 9h-3c-1.158-3.473-1.069-6.36-1-10h-2l1 11-3-1v-3l-4-1v2h2l-1 2c-3.826-1.503-5.7-3.628-8-7a126.53 126.53 0 0 1-2-6c-2.58-5.899-6.219-10.219-10.75-14.75C168 97 168 97 167 95c3.366 1.443 5.51 3.333 8 6l1-4h-2c.114-2.25.242-4.5.375-6.75.07-1.253.14-2.506.21-3.797.368-3.063.812-4.873 2.415-7.453Z"/><path fill="#9D8671" d="M137 131c4.75.75 4.75.75 7 3h2v-2h13v3l8-2v1l9 2-1 2-12-1v2h-6v2h5l2 4 19 1 1 4c-3.403.787-6.38 1.081-9.863.879l-2.686-.147-2.763-.17-2.823-.158c-2.289-.129-4.577-.264-6.865-.404l1-2-2-1v2h-3v2l-12 1v2l-7 1v-2h3l-.254-1.828-.309-2.422-.316-2.39c-.121-2.365.183-4.111.879-6.36h3l-2-3v-4h-3v-2Z"/><path fill="#4E5356" d="M123 65c7.544.482 13.202 3.567 18.875 8.5C147 79.53 147 79.53 147 83c-3.95-.628-7.199-1.865-10.813-3.563l-2.957-1.378L131 77v6l4 1v7c-7.738.337-14.345-.15-21.79-2.266C107.228 87.366 101.12 87.242 95 87l-1 3v-4c2.293-1.147 3.8-1.197 6.352-1.316l2.578-.127 2.695-.12 2.719-.13c2.218-.107 4.437-.209 6.656-.307 1.15-1.925 1.15-1.925 1-4l3-1 2 1v-2h-13v-6l1.688.586A163.739 163.739 0 0 0 125 77c-.141-1.625-.288-3.25-.438-4.875-.08-.905-.162-1.81-.246-2.742-.186-2.394-.186-2.394-1.316-4.383Z"/><path fill="#332F2B" d="M172 64c1.737 3.475 2.392 5.346 2.813 9.063l.332 2.597c-.18 2.908-1.055 3.443-3.145 5.34.293 1.674.627 3.342 1 5l-2 3h-2v4l3 1 1 2 3 1v5c-4.875-2.875-4.875-2.875-6-4 6.194 6.017 11.073 11.328 13 20-2.784-2.703-5.334-5.4-7.75-8.438-2.329-2.778-4.684-4.633-7.75-6.562-4.254-2.72-8.05-5.484-10.5-10-.468-2.865-.308-5.075 0-8h3a1135.59 1135.59 0 0 0-.438-4.75c-.08-.882-.162-1.763-.246-2.672A44.11 44.11 0 0 0 158 71l-3 1-1-7 5 1 1 3c2.015.733 2.015.733 4 1v2h2v-3l4-1v7h2V64Z"/><path fill="#6A7A84" d="M86 73h8v7h-6v6h6v19h-5v4l1.938-.563L93 108c1 1 1 1 1.114 3.133l-.016 2.777-.01 2.998-.025 3.154-.014 3.167c-.012 2.59-.028 5.18-.049 7.771h-8V73Z"/><path fill="#494A4C" d="M135 100h1l1 22-.125-6.875c-.07-3.867-.07-3.867.125-7.125 2-2 2-2 4.063-2.5L143 105l1-2h2v22h-3l-.625 1.938C141 129 141 129 137.875 129.75L135 130l-1-3-1 4h-7v-22l3 3c2.138-.076 2.138-.076 4-1 1.148-2.296 1.308-4.077 1.563-6.625l.253-2.477L135 100Z"/><path fill="#9F6D67" d="M59 75h1v18l2-1c.39-2.095.39-2.095.5-4.5.156-2.469.156-2.469.5-4.5l2-1 2-3c.025 4.958.043 9.916.055 14.874.005 1.679.012 3.357.02 5.035A458.403 458.403 0 0 1 66 133v3h-7V75Z"/><path fill="#404139" d="M149.688 19.438C171.477 29.715 171.477 29.715 177 38l-4 1v-2h-2v3l-2 1-1 2-3 1v4h-2v-2h-2l3-6h-2v2h-4l-2-4 2-1-2.938-.375L152 36l-1-2-2-3c-2.584-.25-2.584-.25-5 0v-2l4-2-2-1c1-3 1-3 2-4h-4l1 3-3-1-1-2c5.086-3.149 5.086-3.149 8.688-2.563Z"/><path fill="#837F75" d="m67 136 3 1v8l2.688-.5c5.73-.84 11.536-.578 17.312-.5v3h5v1c-5.666 1.225-11.237 1.092-17 1l1 2c2.81.692 2.81.692 6.063 1.125l3.347.508L91 153v1c-17.744.185-17.744.185-24.922-.977-2.154-.161-2.154-.161-4.267.895-3.281 1.263-6.398 1.811-9.87 2.371l-2.02.328c-1.404.226-2.808.45-4.213.67-2.137.337-4.27.684-6.405 1.033-1.37.22-2.741.439-4.112.657l-3.743.596c-3.24.401-6.195.733-9.448.427l-2-3c12.689-2.689 25.023-4.66 38-5v-3l6-1v3l2-1c.47-3.276.47-3.276.625-7.063l.227-3.91L67 136Z"/><path fill="#7D4940" d="M42 78h1l1 36 5 2v-8h1v9h8c.027 2.98.047 5.958.063 8.938l.025 2.576.01 2.45.016 2.27C58 135 58 135 57 136c-2.533.073-5.031.092-7.563.063L42 136v-22l-2-1h2V78Z"/><path fill="#7D8166" d="M159 97c11.478 5.337 20.406 14.348 27 25 2.007 3.01 2.839 3.63 6 5a84.76 84.76 0 0 1-2 7l2.063-.125c3.536.15 6.57 1.069 9.937 2.125-.498 3.735-.875 5.812-3 9h-3v2h-4l-1 3-4-1 1-1-4-2 2-7h-5l-2-4h8v-4l-4 1c0-3 0-3 1-6-1.489-2.578-1.489-2.578-3.625-5.25-2.392-3.14-4.727-6.252-6.875-9.563-3.297-4.66-8.109-7.54-12.746-10.734L159 99v-2Z"/><path fill="#778D82" d="m71 34 2 3c1.977.363 1.977.363 4.125.188L81 37c-1.875 4.75-1.875 4.75-3 7l3 1 1.375-2L84 41h2v-2h7l1-2h2a128.606 128.606 0 0 1-2 7l-2 1v6l-3-1 1-5-5 1-1 5h-3l-1-3-5-1v2l-2 1h3l3 1c-1.188 1.563-1.188 1.563-3 3a88.406 88.406 0 0 1-5-1l-2 2h-4l1 2-5 1V42l3 1 1-2h3v-2h3v-5Z"/><path fill="#85615F" d="M84 109h1v24l4.89-.527c8.308-.693 16.543-.343 24.86-.036 1.583.054 3.167.107 4.75.159 3.834.127 7.667.263 11.5.404v4c-18.056.721-35.953 1.335-54 0 .087-1.96.195-3.917.313-5.875l.175-3.305c.17-.93.338-1.861.512-2.82l3-2-3-1v-7h6v-6Z"/><path fill="#090B0B" d="M5 123h22l-1 17-5 1-1-3h-5l-1 3h-4c-.841-2.247-1.673-4.497-2.5-6.75l-.723-1.922C5.552 128.968 5 126.631 5 123Z"/><path fill="#4E5349" d="M177 38c4.085 1.565 6.513 4.48 9.25 7.75l1.446 1.727C192.534 53.417 197.165 59.85 200 67c-.324 3.137-.324 3.137-1 6 .08 2.294.08 2.294.438 4.375L200 81h-3l-.813-3.438L195 74l-3-1 1-2a277.821 277.821 0 0 0-1-4 99.048 99.048 0 0 1 0-5l-3 1v-4h-4V48h-2l-1 3-1-1v8l-2-3-1 2h-2v-2l-2-1 4-1c-.495-3.665-1.02-5.708-4-8l-3-1v-3l6-2v-1Z"/><path fill="#1B1C1C" d="M131 77c16.836 5.254 16.836 5.254 20 10-.556 5.556-.556 5.556-2 7-.16 2.737-.26 5.452-.316 8.191l-.063 2.485c-.066 2.629-.125 5.258-.184 7.886l-.13 5.334c-.108 4.368-.209 8.736-.307 13.104h-2l-1-35h-2l1 3c-4.75 4.875-4.75 4.875-7 6V91l8-2-9-4-1 3v-4l-4-1v-6Z"/><path fill="#444542" d="M151 88c4.717 4.462 4.717 4.462 6.25 7.375 2.756 4.134 6.765 6.726 10.75 9.625l-2 1v20h-3v3l-9 1 2-1v-2h3a976.13 976.13 0 0 0-.25-12.25l-.043-3.512-.098-3.379-.063-3.11c-.67-3.373-1.945-4.583-4.546-6.749l-.813 3.438L152 105l-3 1c-1.792-5.376-1.696-10.375.5-15.5L151 88Z"/><path fill="#848C94" d="M5 83h1l-1 19 2-10h2c.864 2.593 1.176 4.34 1.316 7.012l.127 2.295.12 2.38.13 2.417c.106 1.965.207 3.93.307 5.896l2 1v2c1.454-.03 1.454-.03 2.938-.063C19 115 19 115 20 116v7H4c-1.038-6.23-1.184-12.022-1.188-18.313l-.037-3.302C2.764 94.929 3.336 89.24 5 83Z"/><path fill="#465343" d="m77 55 3 3-3 1 4 2 3-2c2-1 2-1 4.438-.5 2.666.739 2.666.739 5.562-.5l1 2 3 2 1 2 1-2c2.21 5.978 1.932 10.74 1 17l-2.375-.063C96.019 78.814 96.019 78.814 94 80v-8l-4-1 3-3-7-1-1 2v-4l-1.828.219-2.422.281-2.39.281C76 66 76 66 72 66l-1-5 2-1-1-2h2l1-2 2-1Z"/><path fill="#869983" d="m102.938 10.938 3.228.013c2.611.012 5.223.028 7.834.049l-1 2h-3v2h-7l-1 4-6-1-1 3-2-1v2l2 1h-2l-1 3h-4l-2 4-2-1v-2l-3 1 2 4 5-1 1 4c-1.626-.309-3.25-.622-4.875-.938l-2.742-.527C79 33 79 33 77 32v-2l-8 1 4-2v-2c5.415-3.077 5.415-3.077 8.375-2.688L83 25v-2l-2.438-.875C78 21 78 21 77 19l11-1v7h2v-7l5 1 2-5h3v-2l-1.723.473C93.081 13.783 89.246 14.116 84 13v-1c6.326-1.14 12.523-1.114 18.938-1.063Z"/><path fill="#6B6261" d="M11 96h1v16c11.982.853 11.982.853 23.984.938C38 113 38 113 42 114v21h-2v-12H20l-1-7-6-1v-2h-2V96Z"/><path fill="#48505B" d="M85 73h1v58h8l-1-22-5 1v-5l5-1 1-14h4v2l9 2v7l-1-4c-4.615-1.042-4.615-1.042-9 0v29l4 1 2 1v4c-6.185.916-11.617 1-18 1V73Z"/><path fill="#3E4731" d="m206 100 2 1c.477 12.617-1.256 23.905-5 36-6.875-.875-6.875-.875-8-2-2-.04-4-.043-6 0l3-10h-2l-1-4c4.875 2.625 4.875 2.625 6 6l2 1-1-11h2l1 10h3c.081-3.564-.114-6.566-1-10-.473-4.496.91-7.061 3-11 .7-1.989 1.377-3.986 2-6Z"/><path fill="#4F514E" d="M154 94h1l1 5h2c1.06 3.178 1.115 5.426 1.098 8.762l-.01 3.388-.025 3.537-.014 3.573c-.012 2.913-.028 5.827-.049 8.74h-3v2l-3 1-1-9-1 4h-2v-19l3-1-.125-2.688c.124-3.285.739-5.366 2.125-8.312Z"/><path fill="#AB7063" d="M43 67h2c1.125 3.75 1.125 3.75 0 6h3c.688 1.688.688 1.688 1 4l-1.5 2.438c-1.769 2.449-1.769 2.449-1.25 5.187A356.16 356.16 0 0 0 48 90h2c.027 2.833.047 5.667.063 8.5l.025 2.398c.02 5.13-.349 10.025-1.088 15.102-4.875-.875-4.875-.875-6-2a67.426 67.426 0 0 1-.114-4.428v-2.851l.016-3.1.005-3.157c.005-3.342.018-6.684.03-10.026.006-2.26.01-4.52.014-6.78.011-5.553.028-11.105.049-16.658Z"/><path fill="#292B2C" d="M136 85c2.846.66 5.523 1.517 8.25 2.563l2.14.816L148 89v1l-11 1 .375 4.313c.07.8.14 1.6.21 2.425.31 2.534.31 2.534 2.415 5.262 2.259-3.254 2.259-3.254 3-7h2c.49 6.359.49 6.359-1.813 9.375C141 107 141 107 138 108v17c-2.846-2.846-2.456-5.804-2.625-9.625l-.117-2.14c-.094-1.745-.177-3.49-.258-5.235h-2v-3h-2l1 5-1-2-3 1v-5l-2-1v-7l2 1 1-3 2-1-7-1v-1h11l1-6Z"/><path fill="#A8B0BF" d="M16 62h1l.438 2.813C17.92 68.007 17.92 68.007 19 71l8 1v2l3 1c-5.681-.921-11.34-1.964-17-3l.035 1.872c.083 8.142-.435 16.199-1.035 24.316l-.29 4.04c-.233 3.258-.47 6.515-.71 9.772h-1L9 92H7l-1 14c-2.64-5.281-2.01-9.049-1.5-14.813l.27-3.104C5.677 79.378 7.704 71.681 12 64l2-1v2h2v-3Z"/><path fill="#7C949E" d="M68 77h1l1 19h4v-6h1v40l-4 1v-13h-2v13h-1V77Z"/><path fill="#3D453A" d="m14 142 1 3 2 1v2l5 1 1-2 6 1v-3h3v3h2v-2l5-1 1 5h3v-2l2 1-1 2 3-1-1 3c-3.727.702-7.456 1.384-11.188 2.063l-3.197.603-3.095.557-2.841.523c-2.84.27-4.948.061-7.679-.746-1.617-1.89-1.617-1.89-2.875-4.25l-1.305-2.328c-.976-2.882-.65-4.535.18-7.422Z"/><path fill="#637A71" d="M95 22c1.149 3.447.827 4.06-.438 7.313C93.23 33.023 92.695 36.017 93 40l-7-1v2a158.814 158.814 0 0 1-6 5v-2h-2c1.875-4.75 1.875-4.75 3-7l-9 1-.938-2.375c-.99-2.548-.99-2.548-2.062-4.625l8-1v2l12 3-2-3-1.813.688L83 33c-1.75-1.438-1.75-1.438-3-3l1-3h3v2l3-1 1-2 1.875-.438c2.492-.66 3.458-1.645 5.125-3.562Z"/><path fill="#31343B" d="M70 137h28v9c-1 1-1 1-4.563 1.063L90 147v-3l-1.836.219c-6.082.673-12.047.898-18.164.781v-8Z"/><path fill="#3B3C42" d="M13 72c6.55.458 12.675 1.21 19 3v1h-6v11l-1-2h-2v3l-3 1v-4h-3l-1 4v-5h-2v13h5v1h-6v3l2 1-1 2h-2c-.206-22.801-.206-22.801 1-32Z"/><path fill="#646C76" d="m143 55 9 1v28l-2-1v-3h-2l-1.875-2.875C144.029 74.042 143.213 73.44 140 72l-1-3h2V57h1v15h2l-1-3c-.07-2.395-.084-4.792-.063-7.188l.028-3.855L143 55Z"/><path fill="#5D6974" d="M76 73v24l-5-1-1 2-1-2-1 35h-1V74c2-1 2-1 9-1Z"/><path fill="#1C1714" d="M101 137h31v6h-2v-3c-5.856-.113-5.856-.113-10.828 2.59a68.93 68.93 0 0 0-2.883 3.816C115 148 115 148 112 149c-2.333.04-4.667.044-7 0v-2l5 1 1-3-3.875-.063-2.18-.035c-2.027-.028-2.027-.028-3.945 1.098v-9Z"/><path fill="#724D4C" d="M76 73h1v64c-8 0-8 0-11-1v-2h-2l1-2c.232-2.713.42-5.408.563-8.125l.13-2.285c.106-1.863.207-3.727.307-5.59h1v15h2v-13h2v13l3-1 2-57Z"/><path fill="#72888F" d="m108 89 5 1v38l-3 1-2-1V89Z"/><path fill="#232323" d="m142 45 3 9 4.375-.063c4.375-.062 4.375-.062 6.625 1.063.407 2.322.744 4.657 1 7l1-5c3.988.57 6.624 1.836 10 4 1.326.681 2.657 1.353 4 2h-2l-1 3-3-1-1 5-3 1-3-2v-3l-3 1c-2.313-2.313-2.496-3.479-3.125-6.625l-.508-2.477L152 56l-3.313.188C145 56 145 56 143.063 54.624 142 53 142 53 142 51l-4-1v-4c2-1 2-1 4-1Z"/><path fill="#5E695B" d="M125 45c2 3 2 3 2 5l3-1 1 1v-3h3v8h-2v-2c-3.287-.8-4.71-1.097-8 0l-.5 2-.5 2-3 1v-2h-2l.625 1.813C119 60 119 60 117 63h-2l-1 2h-5v-2h-7c1.258-3.775 2.559-4.198 6-6l3-1v-2h7l.313-1.938L119 50l3-1 1-2h2v-2Z"/><path fill="#4E4940" d="M162 81c2 3 2 3 2 5 3.878.434 3.878.434 5.75-1.5L171 83l2 1-2 5h-2v4l3 1 1 2 3 1v5c-4.875-2.875-4.875-2.875-6-4 6.194 6.017 11.073 11.328 13 20-2.805-2.722-5.373-5.446-7.813-8.5-2.286-2.788-4.348-4.208-7.562-5.813-2.055-1.156-2.055-1.156-3.625-2.687-.687-3.427-.482-6.554 0-10h-2c-1.231-3.694-.644-6.206 0-10Z"/><path fill="#69717B" d="m126 51 6 2v2c2.33-.959 2.33-.959 4-4 .853 3.674 1.108 7.045 1.063 10.813l-.028 2.957L137 67a56.734 56.734 0 0 1-9.5-2.563c-3.29-1.131-5.982-1.777-9.5-1.437v-7l5 1 1-4h2v-2Z"/><path fill="#9FB7C5" d="M51 78h2v2h5v17h-5l1.438 1.75c2.587 3.725 2.683 7.038 2.624 11.5l-.027 2.703L57 115l-1-2h-2v-11h-2v14h-1V78Z"/><path fill="#9A6451" d="M96 91h1l1 5 1.75-.625C102 95 102 95 104.188 95.688 106.552 97.4 106.532 98.13 107 101c.069 2.594.094 5.158.063 7.75l-.014 2.113c-.012 1.713-.03 3.425-.049 5.137l-7 1v-3l-2-1c-2.412-7.1-2.229-14.6-2-22Z"/><path fill="#312422" d="M107 63h2v2l3-1c2.188.938 2.188.938 4 2v3h2v-5c2.375-.188 2.375-.188 5 0 2.21 3.314 2.225 4.345 2.125 8.188l-.055 2.73L125 77c-6.401-.466-11.268-2.147-17-5v6h-1V63Z"/><path fill="#4E674D" d="M43 140c3.242.35 4.615.562 6.813 3.063L51 145l-1 2c.603-.095 1.207-.19 1.828-.29l2.422-.335 2.39-.352c2.682-.026 4.087.611 6.36 1.977l-5 1v3c-3.981 1.327-7.85 1.07-12 1v-2h-2l-1-1h-3l-1-4h-5v2h-2v-3l-3-1c3.634-2.326 6.77-2.163 11-2v2h2l1-4Z"/><path fill="#8F6868" d="M77 86h1l1 11 5 1c1.861 5.584 1.138 11.311 0 17h-6v3l2 1-2 3 4 1-3 2c-.733 3.066-.733 3.066-1 6h-1V86Z"/><path fill="#969BA0" d="m100 44 3 1v2l2.375-1.063L108 45l2 1 1 3h3c-2.447 6.776-2.447 6.776-5 9-3.027.34-5.967.229-9 0l-.188-2.875L99 52c-2.463-1.453-2.463-1.453-5-2v-4l3 1 3-3Z"/><path fill="#131816" d="m190 86 2 4-2 2 2.313.188C195 93 195 93 196.75 95.061c2.7 6.344 2.391 13.158 2.25 19.938l-4 1c-4.246-8.534-7.285-17.381-7-27h2v-3Z"/><path fill="#885857" d="M66 93h1c.115 13.38-.03 26.653-1 40v3h-7v-20l7-1V93Z"/><path fill="#3C3A37" d="M168 106c4.475 2.685 5.808 3.643 8.5 7.688.59.877 1.178 1.755 1.785 2.66A495.68 495.68 0 0 1 185 127l-2 3c-4 0-4 0-5.625-1.25-2.83-3.603-3.63-6.146-3.375-10.75h-2l-2 4h-2v-16Z"/><path fill="#595E64" d="M123 65c7.544.482 13.202 3.567 18.875 8.5C147 79.53 147 79.53 147 83c-5.07-.654-9.42-2.855-14-5v-2h-5v-6h-2c-1.625-2.5-1.625-2.5-3-5Z"/><path fill="#CAAFA0" d="m103.559 132.121 2.391.072c2.496.076 4.992.16 7.487.244 1.703.054 3.405.107 5.108.159 4.152.128 8.303.264 12.455.404v4c-14.373.127-28.653-.12-43-1v-3c5.275-.903 10.218-1.071 15.559-.879Z"/><path fill="#51645D" d="M95 39h5v2h2v-2h2c-.188 1.875-.188 1.875-1 4a124.97 124.97 0 0 1-5 2l-1 3h-2v2l1.938.625C99 52 99 52 99.75 55.125L100 58l3 1h-4l-1-6-5 1v-2l-1.75 2.063L89 56c-2.25-.25-2.25-.25-4-1l2-1-1-2-1 2h-5v-2l4-1 1-5 5-1-1 5 2-1c.656-2.527.656-2.527 1-5h2l-1-3h2v-2Z"/><path fill="#563B30" d="M174 128h3v3l3 1 1 3h-3v4l-14 1-1 4-1-2c-2.527-.656-2.527-.656-5-1v-2h6v-2l6-1c-2.79-1.105-2.79-1.105-5-1h-5v-3c5.13-2.104 9.561-2.218 15-2v-2Z"/><path fill="#9BB5BD" d="m90 108 4 1v21h-7a819.08 819.08 0 0 1-.188-9.875l-.076-2.84-.029-2.715-.048-2.507L87 110l3-2Z"/><path fill="#938959" d="M98 138h3v8l1-2h10l-2 4-5-1v2h5v1h-6v2c-2.25.75-2.25.75-5 1-2.313-1.938-2.313-1.938-4-4l-1 3-1-2-2.875.563C87 151 87 151 85 150l-1 3-6-2v-2l3.648-.402 4.727-.536 2.406-.263c4.242-.403 4.242-.403 8.219-1.799.465-1.895.465-1.895.625-4.063L98 138Z"/><path fill="#5F6563" d="M125 35v4h3v2l3-2 2-1v2l3 1h-2v3l2 1-7 2-1-2 1-3h-2v-2h-2l1 4h-4l-1 4-1-2h-2v-3l-3 3-3-1h2l-2-5c4.338-3.128 7.612-5 13-5Z"/><path fill="#504740" d="M91 52h2v2l5-1 1 6 8-1-5 5 1.938-.563L106 62c1 1 1 1 1.098 4.379-.007 1.394-.019 2.789-.035 4.183l-.014 2.155c-.012 1.76-.03 3.522-.049 5.283h-2V64h-3l1 5-3-2v-1l-3-2v-2l-3-2v-2l-3 2h-3c.75-5.75.75-5.75 3-8Z"/><path fill="#E0E5EA" d="M100 12v2l-3 1c-1.209 2-1.209 2-2 4l-5-1v7h-2v-7c-1.626.309-3.25.622-4.875.938l-2.742.527C78 19.9 78 19.9 76 21l-1-5-3-1c5.672-1.712 10.563-2.167 16.484-1.973C92.432 12.984 95.99 11.89 100 12Z"/><path fill="#4C6350" d="M149.688 19.438C163.305 25.86 163.305 25.86 167 30l-1 2h-3l-1-4-4 1-1-2c-3.03-.658-3.03-.658-6-1 1.722 3.248 1.722 3.248 5 4v2h-5v-2l-7 1v-2l4-2-2-1c1-3 1-3 2-4h-4l1 3-3-1-1-2c5.086-3.149 5.086-3.149 8.688-2.563Z"/><path fill="#7D878C" d="m170 44 5 1v2l3 1v5l-3 1 1 1.813C177 58 177 58 177 61c-3.91-.223-4.917-.909-7.625-3.875L167 54l-1.813-1.75C164 51 164 51 164 49a264.271 264.271 0 0 1 5-3l1-2Z"/><path fill="#141B3B" d="m113 103 1 3 5 1v24l-1-3-5-1v-24Z"/><path fill="#91A5A1" d="m102.938 10.938 3.228.013c2.611.012 5.223.028 7.834.049l-1 2h-3v2h-7l-1 4-6-1-1 3-2-1v2l2 1h-2l-1 3-4-1h2v-7l5 1 2-5h3v-2l-1.723.473C93.081 13.783 89.246 14.116 84 13v-1c6.326-1.14 12.523-1.114 18.938-1.063Z"/><path fill="#444446" d="M144 103h2v19l-1-2h-2v-3h-2v8h-2c-2.46-3.69-2.268-5.67-2.25-10.063l-.016-3.785C137 108 137 108 139 106l2.063-.5L143 105l1-2Z"/><path fill="#6C8370" d="m77 46 1 2 3-1 .438 2.438C81.74 51.92 81.74 51.92 83 53l3-2 3 1h-2l1 7h-3l-1 2-2-1-1 2-5-2 3-3c-2.621 0-4.51.313-7 1v-3l-2-2c3.29-1.097 4.713-.8 8 0v-2l-2-1-1 2-3-3h3v-2l2-1Z"/><path fill="#666564" d="M148 102h1v23h2l1-6h1v12h11v1h-18v2h6l-1 2c-6.523-.492-6.523-.492-8.938-3.063L141 131h3l-1.063-1.813C142 127 142 127 143 124l3 1v6h2v-29Z"/><path fill="#5A5B5A" d="M154 103c2.102 3.153 2.243 3.861 2.195 7.45l-.02 2.568-.05 2.67-.027 2.705A824.857 824.857 0 0 1 156 125h-1l-1 5h-1l-1-9-1 4h-2c-.08-2.605-.14-5.207-.188-7.813l-.076-2.236c-.074-5.46-.074-5.46 1.65-7.963C152 106 152 106 154 106v-3Z"/><path fill="#B27871" d="M48.563 65.938 51 66v9h7v5h-5v-2l-2-1-1-1v14h-4c-1.362-7.306-1.362-7.306.5-10.875L48 77l-1-2 1-2h-3c-.043-2-.04-4 0-6 1-1 1-1 3.563-1.063Z"/><path fill="#8499A5" d="m121 92 3 1 1 37-4 1V92Z"/><path fill="#4D4F4F" d="m161 100 7 5-2 1v20l-4-1-1 2c-.197-3.75-.381-7.5-.563-11.25l-.17-3.223-.146-3.105-.143-2.857C160 104 160 104 161 100Z"/><path fill="#6D6C6C" d="m114 126 2 4h-2v2l23-1v2h3l2 7-7 1v-4h-4v-4h-24l1-5 2.438-.438c2.483-.303 2.483-.303 3.562-1.562Z"/><path fill="#1A1B1E" d="m119 91 14 1-4 2c-.805 2.05-.805 2.05-1 4l-1-1-1 9c-3.05-3.05-2.44-6.396-2.656-10.566L123 93l-2-1v39l3 1h-10v-2h2v-2h2c.778-4.8 1.119-9.386 1.098-14.246l-.005-1.988c-.005-2.068-.018-4.136-.03-6.204-.006-1.413-.01-2.826-.014-4.24-.01-3.44-.03-6.881-.049-10.322Z"/><path fill="#AB948B" d="m178 135 3 2v2h5l-1 7-2-1a76.364 76.364 0 0 0-4.352-.316l-2.578-.127-2.695-.12-2.719-.13c-2.218-.107-4.437-.209-6.656-.307v-4c2.765-1.382 5.046-1.095 8.125-1.063l3.32.028L178 139v-4Z"/><path fill="#0A1311" d="M5 123c4.516-.077 8.59-.102 13 1l-1 3c.394 2.638.394 2.638 1 5h-2l-2-2c-2.296 3.445-2.54 5.938-3 10l4-1-1 2h-4c-.841-2.247-1.673-4.497-2.5-6.75l-.723-1.922C5.552 128.968 5 126.631 5 123Z"/><path fill="#7E4C3C" d="m95 89 3 1v2l9 2v7l-1-4c-4.615-1.042-4.615-1.042-9 0v29l4 1 2 1v4h-8V89Z"/><path fill="#7B8B73" d="M125 40h2v2h2l-1 4-3-1v2h-2l1 4h-5l-1 3c-1.938.75-1.938.75-4 1l-2-1v-4l-2-1v-3h-4v-2l7-2 2 4 1-3h2v3l3 1 1-3h4l-1-4Z"/><path fill="#3C4539" d="M206 83c1.229 6.068 2.276 11.799 2 18h-2l-3 10-2-1c-.594-2.649-.742-5.292-1-8h2l2-9-2-1c-1.188-2.938-1.188-2.938-2-6 1.393-2.786 2.989-3 6-3Z"/><path fill="#4F4C46" d="m185 84 1 2h4v3h-2c1.26 7.932 2.916 15.415 6.25 22.75.923 2.768.541 4.48-.25 7.25-2.313-2.313-2.496-3.479-3.125-6.625l-.508-2.477L190 108h-2l-1-10-1 3h-2a1420.4 1420.4 0 0 1-.063-6.813l-.035-3.832C184 87 184 87 185 84Z"/><path fill="#6C7682" d="M41 102v10l-2-.5c-3.731-.622-7.219-.564-11-.5v-8c1.602-.364 3.207-.716 4.813-1.063l2.707-.597C38 101 38 101 41 102Z"/><path fill="#868D97" d="m32 75 1 2 8 1v22h-2V79h-5v6h-2v-4l-5-2v19h-1V76l6-1Z"/><path fill="#757E8A" d="m137 47 2 3 3 1c1.147 2.293 1.197 3.8 1.316 6.352l.127 2.578.12 2.695.13 2.719c.107 2.218.209 4.437.307 6.656h-2l-1-3c-2.015-.733-2.015-.733-4-1-.196-3.312-.38-6.625-.563-9.938l-.17-2.865-.146-2.724-.143-2.524C136 48 136 48 137 47Z"/><path fill="#391D16" d="M95 87h15v2h-2v43h-1V94l-9-2-3-3v-2Z"/><path fill="#16181C" d="M131 77c3.021.943 6.013 1.954 9 3l2.566.879c2.322.89 4.372 1.73 6.434 3.121 1.063 3.25 1.063 3.25 1 6a948.71 948.71 0 0 1-4.75-1.375l-2.672-.773c-2.339-.773-4.412-1.688-6.578-2.852l-1 3v-4l-4-1v-6Z"/><path fill="#A99A92" d="M160 142h3l1 3 19 1 1 4c-3.403.787-6.38 1.081-9.863.879l-2.686-.147-2.763-.17-2.823-.158c-2.289-.129-4.577-.264-6.865-.404l1-2-2-2 3-2-1-2Z"/><path fill="#333C47" d="M101 69h1c.054 1.77.093 3.541.125 5.313l.07 2.988C102 80 102 80 100 83l8 1v1l-20 1v-6h7v-9h1v8h5V69Z"/><path fill="#905348" d="M48 117h10l-1 13-4-1-2 2c-1-1-1-1-1.098-2.848L50 122h-2l-1-3 1-2Z"/><path fill="#262B30" d="M98 137c.027 1.48.046 2.958.063 4.438l.035 2.496C98 146 98 146 97 147c-2.333.04-4.667.042-7 0v-3l-9 1v-3h4l1-3c4.31-1.343 7.478-2 12-2Z"/><path fill="#1F1F1E" d="M186 96c2 2 2 2 2.195 4.383l-.07 2.742-.055 2.758L188 108h2c.532 1.433 1.05 2.872 1.563 4.313l.878 2.425C193 117 193 117 192 120l-1.32-1.906c-3.389-4.87-6.821-9.662-10.516-14.305C179 102 179 102 178 98l8 3v-5Z"/><path fill="#EFF2F4" d="M61 58v5c-3.24 1.62-6.816 1.747-10.375 2.188l-2.328.326c-6.99.864-6.99.864-10.297-1.514h4l1-4c2.062-.338 4.124-.67 6.188-1l3.48-.563c2.836-.372 5.48-.523 8.332-.437Z"/><path fill="#787A51" d="M72 144h18v3h5v1c-5.666 1.225-11.237 1.092-17 1l1 2c2.81.692 2.81.692 6.063 1.125l3.347.508L91 153v1H76l-1-7h3l-6-2v-1Z"/><path fill="#786F64" d="M159 97c12.533 5.827 23.202 16.438 29 29l-3 1c-.835-1.103-1.668-2.208-2.5-3.313l-1.664-2.199a185.555 185.555 0 0 1-3.734-5.258c-4.126-5.96-8.051-10.264-14.102-14.23-2.234-1.531-2.234-1.531-4-3v-2Z"/><path fill="#A8726C" d="M59 75h1v18l2-1c.39-2.095.39-2.095.5-4.5.156-2.469.156-2.469.5-4.5l2-1 2-3c.027 2.27.046 4.542.063 6.813l.035 3.832C67 93 67 93 66 96l-5 1-1 19h-1V75Z"/><path fill="#565A54" d="m161 34 2 1v3l4-1-1-3c1.46.087 2.918.195 4.375.313l2.46.175C175 35 175 35 177 38l-4 1v-2h-2v3l-2 1-1 2-3 1v4h-2v-2h-2l3-6h-2v2h-4l-2-4h4l1-4Z"/><path fill="#698271" d="M125.813 12.063c1.403.277 2.799.592 4.187.937l2.293.531c1.91.46 3.81.96 5.707 1.469l-2 2c-3.125-.375-3.125-.375-6-1v3h-2l-1 3-2-1-3 1-2-3-3-2c2.897-3.712 3.98-5.017 8.813-4.938Z"/><path fill="#282D32" d="M57 137h9v14h-2l-1-3c-3.008-1.225-3.008-1.225-6-2v-9Z"/><path fill="#050606" d="M43 137h14v10h-7l-.688-2.875c-1.003-3.318-1.003-3.318-3.937-4.5L43 139v-2Z"/><path fill="#434349" d="M75 97h1v36h-9c-1-1-1-1-1.098-4.598.007-1.488.019-2.976.035-4.464l.014-2.3c.012-1.879.03-3.758.049-5.638h1v15h2v-13h2v13l3-1 1-33Z"/><path fill="#29353D" d="M32 127h3c1.607 3.215 1.057 6.436 1 10l3 1-7-1v2l-6 1c.06-1.626.149-3.251.25-4.875l.14-2.742C27 130 27 130 28.985 128.743L31 128l1-1Z"/><path fill="#989EA9" d="M7 92h2c1.5 4.498 1.393 9.135 1.605 13.84.164 3.257.358 6.05 1.395 9.16-.278 2.34-.605 4.676-1 7H9c-2.016-5.949-2.45-11.558-2.688-17.813L6.17 101.3c-.304-7.03-.304-7.03.83-9.299Z"/><path fill="#363735" d="M174 74c.676 1.742.676 1.742 1 4-1.145 2.07-1.145 2.07-2.813 4.125l-1.644 2.07C169 86 169 86 167 88c-3.058-2.753-4.874-5.008-6-9l1-3 1 2 1-3 10 2v-3Z"/><path fill="#3C3A30" d="M40 146v4h3v-2l2 1-1 2 3-1-1 3a3380.58 3380.58 0 0 1-7.813 1.5l-2.236.434C32.922 155.509 30.091 156 27 156v-3l-2-1c3-1 3-1 5.938 0 3.047.995 4.15 1.12 7.062 0-2.906-1.257-4.796-2-8-2l1-2h3v-2c2.49-1.245 3.41-.777 6 0Z"/><path fill="#080909" d="M109 138h22v5l-1-3c-5.743-.063-5.743-.063-10.71 2.402-1.526 1.817-1.526 1.817-3.29 4.598l-1-2h-2v-2h-5l2-1-1-4Z"/><path fill="#26241E" d="M190 82h4l1 3 3 1v-2h3l1 8 3 1-3 9h-2a337.023 337.023 0 0 1-1.563-4.313l-.878-2.425C197 93 197 93 198 90l-2-1v-2l-1.875-.938L190 84v-2Z"/><path fill="#A5B4C6" d="M183 48h2c1.374 3.818.68 7.073 0 11h4v4h-3v4h-3c-2.428-5.827-2.617-11.776-3-18l2 1 1-2Z"/><path fill="#363738" d="M178 79c5.02 2.114 5.02 2.114 7 5 .338 5.437-.247 10.616-1 16l-5-1 1-2v-3c0-3 0-3 1-5l-3 1V79Z"/><path fill="#323F4E" d="m33 76 9 1v35h-1l-1-10h-3l-2-5h2v-4l-2-1 3-1V80h1v20h2V78l-8-1v-1Z"/><path fill="#5F544A" d="M196 61c2.14 2.604 3.577 4.62 4 8l-.5 1.75c-.782 3.52-.033 6.698.5 10.25h-3l-.813-3.438L195 74l-3-1 1-2a93.365 93.365 0 0 0-1-4v-3l3-1 1-2Z"/><path fill="#B7BBC4" d="M124 54h5c1.158 3.473 1.069 6.36 1 10l-1.863-.219-2.45-.281-2.425-.281c-2.381-.267-2.381-.267-5.262-.219v-7l5 1 1-3Z"/><path fill="#B28A8E" d="M59 65v7h3v2c-3.674 1.176-7.17 1.074-11 1v-7l-3-1c3.83-1.802 6.781-2.196 11-2Z"/><path fill="#8E886F" d="m95 149 4 2v2l2.155-.521c2.96-.498 5.382-.422 8.365-.14l3.095.284 3.198.315 3.255.302c2.645.247 5.289.5 7.932.76v1c-4 .03-8 .047-12 .063l-3.41.025c-5.974.017-11.684-.192-17.59-1.088-1.666-.192-3.333-.38-5-.563l-2.313-.253L85 153v-3c6.152-.098 6.152-.098 8 0l1 1 1-2Z"/><path fill="#7C818A" d="M19 99c3.105-.318 5.017.006 8 1v11h-4v-4h-6c-.2-3.716-.152-4.772 2-8Z"/><path fill="#7E6268" d="M84 81h1v20l-1-3-2.438-.375L79 97c-1.607-3.215-1.057-6.436-1-10l4 1 .438-2.375C83 83 83 83 84 81Z"/><path fill="#CDB79F" d="M137 131c4.75.75 4.75.75 7 3 2.433.462 2.433.462 5.125.625l2.758.227L154 135l-1 3 3 1-2 10-3-1c-1.478-2.957-1.06-5.742-1-9l-3-1a274.838 274.838 0 0 1-5.188-2.563l-2.73-1.378L137 133v-2Z"/><path fill="#2B2A23" d="M166 106h2v23h4l1-2v3c-6.697 1.03-13.231 1.102-20 1v-1l10-1v-3h3v-20Z"/><path fill="#3D4744" d="m119 28 3 6-3-1-.688 2.375C116.66 38.682 115.335 38.718 112 40c-.887 2.041-.887 2.041-1 4l-2-1 .625-1.875L110 39l-2-2v-3c3.73-2.034 5.67-3 10-3l1-3Z"/><path fill="#434B53" d="m14 84 6 1v5l5-1v6H14V84Z"/><path fill="#6D655E" d="m115 82 2 1c2.371.23 4.747.411 7.125.563l3.883.253L131 84v2l-7-1v2H95l-1 3v-4c2.293-1.147 3.8-1.197 6.352-1.316l2.578-.127 2.695-.12 2.719-.13c2.218-.107 4.437-.209 6.656-.307v-2Z"/><path fill="#90A9A8" d="m71 34 2 3c1.977.363 1.977.363 4.125.188L81 37l-1 4c-1.769.363-3.54.715-5.313 1.063l-2.988.597C69 43 69 43 66 42v2l5 1v1h-8l-1 2-1-6 3 1 1-2h3v-2h3v-5Z"/><path fill="#585B53" d="m140 23 1 3h-2l1 3 3-1-.938 1.813C140.899 32.09 140.899 32.09 140 35h7l-1 3-3-1v2c-2.875-.313-2.875-.313-6-1l-2-3 1-1v-2l2-1-3-1v2h-2v-4c1.531-1.484 1.531-1.484 3.5-2.75l1.969-1.297L140 23Z"/><path fill="#464C50" d="M177 79h1l1 10h2v9h-3l-1 3-1-4h-2c.114-2.25.242-4.5.375-6.75.07-1.253.14-2.506.21-3.797.368-3.063.812-4.873 2.415-7.453Z"/><path fill="#2D2B28" d="M171 37h2v2l4-1 1 2-7 1-.25 2.313c-.903 3.234-1.886 4.038-4.75 5.687h-2l1 4-2-1c-.625-2.563-.625-2.563-1-5l-1.375 1.375L157 52v-5h2l.938-2.375C161 42 161 42 162 40h2l-3 6h2v2l3-3-2-1c2.386-1.892 4.072-3.024 7-4v-3Z"/><path fill="#38342F" d="M166 96c6.396 2.606 12.31 9.452 15.25 15.625.668 2.114 1.27 4.21 1.75 6.375-2.827-2.744-5.444-5.51-7.938-8.563-2.114-2.548-3.507-3.71-6.437-5.5L166 102c-.375-3.25-.375-3.25 0-6Z"/><path fill="#5F666D" d="M149 56h3v28l-2-1v-3l-2-1a3036.86 3036.86 0 0 1-.063-10.938l-.025-3.154-.01-2.998-.016-2.777C148 57 148 57 149 56Z"/><path fill="#95767A" d="M70 65h6v2l5 1v4l-2 1 1.125 2.188C81.19 78.61 80.603 79.882 79 83h2v2l-4 1V73h-2l-1-5h-4v-3Z"/><path fill="#4B4945" d="M115 62c8.116-.808 14.958.818 22 5a102.67 102.67 0 0 1 4 5l2.188 1.063C145 74 145 74 145.75 76.124L146 78h-2a55.216 55.216 0 0 1-2.5-3.188c-6.013-7.21-14.499-9.529-23.5-10.812v5h-2v-3h-2l1-4Z"/><path fill="#87857C" d="M191 126c.664 1.703.664 1.703 1 4-1.04 2.36-1.04 2.36-2.625 4.75l-1.54 2.422C186 139 186 139 183.29 139.266L181 139l-2-4h8v-4l-4 1c0-3 0-3 1.188-4.688 2.37-1.716 3.952-1.544 6.812-1.312Z"/><path fill="#463833" d="M12 107h8l1 4 15 1v-2l6 2c-7.574 4.52-19.596 2.109-28 1l-2-1v-5Z"/><path fill="#20241F" d="m190 86 2 4-2 2 2.313.188C195 93 195 93 196.875 95.374 198 98 198 98 197 101c-1.438 1.688-1.438 1.688-3 3h-2v-3l-3-1-1-11h2v-3Z"/><path fill="#79956B" d="M15 138h4v6l1.688-.813L23 143c2.75 2.438 2.75 2.438 5 5l-2.313-.063c-2.789-.066-2.789-.066-5.687 1.063l-3-1v-2l-3-1v-2l-2 2-1-4 3-1 1-2Z"/><path fill="#27231F" d="m206 100 2 1c.027 2.458.047 4.917.063 7.375l.025 2.117c.025 5.281.025 5.281-1.088 7.508-1.875-.188-1.875-.188-4-1-1.438-2.188-1.438-2.188-2-5 1.25-2.938 1.25-2.938 3-6 .7-1.989 1.377-3.986 2-6Z"/><path fill="#7A8C96" d="M92 86h2c.054 1.916.093 3.833.125 5.75l.07 3.234c-.193 2.993-.414 4.62-2.195 7.016l-4 1-1-11 5-1v-5Z"/><path fill="#525350" d="M144 38h4l1 5h2v-3l4-1c1.102 4.41 1.077 8.484 1 13h-2l-1.813-2.938c-1.869-3.263-1.869-3.263-4.937-3.937L145 45l1-6-2-1Z"/><path fill="#6F8E97" d="m53 90 5 1v6h-5l1.438 1.75c2.587 3.725 2.683 7.038 2.624 11.5l-.027 2.703L57 115l-1-2h-2v-11h-2l1-12Z"/><path fill="#AFB8C6" d="m36 65 7 2v11l-7-2V65Z"/><path fill="#E0E4E9" d="m107 45 3 1 1 3h3c-.625 1.938-.625 1.938-2 4-3.634 1.027-6.419 1.24-10 0v-2h-2l-1-3 2.875-.375c3.212-.342 3.212-.342 5.125-2.625Z"/><path fill="#899EA6" d="M5 83h1l-.108 1.68c-.158 2.523-.306 5.047-.455 7.57l-.17 2.645-.146 2.558-.143 2.349C5 102.042 5.418 103.846 6 106c.067 2.082.085 4.167.063 6.25l-.028 3.266L6 118l-3-1c-.059-3.98-.094-7.958-.125-11.938-.017-1.116-.034-2.233-.05-3.384C2.784 95.11 3.29 89.347 5 83Z"/><path fill="#748A73" d="m139 16 7 2v3l-1.645.77-2.167 1.043-2.145 1.019c-2.054 1.174-3.46 2.424-5.043 4.168l-3-1v-2h-5v-2l8-2-2 5h2c1.737-3.225 2.89-6.513 4-10Z"/><path fill="#766770" d="M83.563 63.938 86 64v3l7 1-1 3 2 2h-9v-3l-9-3 4-2c1-1 1-1 3.563-1.063Z"/><path fill="#3F463C" d="M144 22h4l-2 4 3 1-5 2v2l3-1 1 3h-6l6 1-1 4v-3h-7c.613-2.962 1.254-4.38 3-7l-4 2v-4h2v-3l3 1v-2Z"/><path fill="#4B5749" d="M29 145h3l-1 5 1-1 2 1c1.537.225 3.08.408 4.625.563l2.477.253L43 151v1c-6.41 1.677-10.594 2.217-17 0-3.292-.168-3.292-.168-6 0v-3h2l1-2 6 1v-3Z"/><path fill="#171B1C" d="m20 124 4 1v14h-2l-1 2-1-3c-2.015-.733-2.015-.733-4-1h3l-.035-2.59-.027-3.347-.036-3.34C19 125 19 125 20 124Z"/><path fill="#504D47" d="M152 73h1l-.027 3c.072 9.162.072 9.162 4.59 16.938 1.113 1.055 2.249 2.09 3.437 3.062l-3 2c-1.128-1.58-2.253-3.165-3.375-4.75l-1.898-2.672C151 88 151 88 149.96 85.734c-.903-2.09-.903-2.09-3.961-2.734-1.188-2.563-1.188-2.563-2-5l3-1 1 3h2l1 3 1-10Z"/><path fill="#4F634C" d="m123.164 139.805 2.461.07 2.477.055L130 140v4c-5.875 2-5.875 2-7 2v2l-7-1c4-6.91 4-6.91 7.164-7.195Z"/><path fill="#84796C" d="M146 132h13v3l8-2v1l9 2-1 2c-3.147-.282-6.292-.578-9.438-.875l-2.662-.238c-5.773-.554-11.262-1.522-16.9-2.887v-2Z"/><path fill="#706A6A" d="M38 114h4v21h-2v-12h-7v-1h5l-.563-3.438L37 115l1-1Z"/><path fill="#3E423E" d="m77 55 3 3-3 1 5 3-2 4h-8l-1-5 2-1-1-2h2l1-2 2-1Z"/><path fill="#524F45" d="m174 115 2 1v2h2c4.429 7.429 4.429 7.429 5 11-1.813.688-1.813.688-4 1-2.698-2.118-3.699-4.283-4.75-7.5l-.797-2.344C173 118 173 118 174 115Z"/><path fill="#7D7B7D" d="M11 96h1v16l14 1-1 9h-3v-7l-3 1a99.768 99.768 0 0 1-6-1v-2h-2V96Z"/><path fill="#9B6159" d="M43 92h1v12h3l2 12c-5-1-5-1-6-2a83.431 83.431 0 0 1-.098-4.91l.01-2.998.026-3.154.013-3.167c.012-2.59.028-5.18.049-7.771Z"/><path fill="#798191" d="M61 61h4v2h-3l.563 1.875C63 67 63 67 62 69l2 1-3 1v-3h-2v-3l-2.527.473C47.2 67.076 39.863 67.409 31 64c3.208-1.048 5.042-.874 8.25.063 7.297 1.654 14.472.11 21.75-1.063v-2Z"/><path fill="#AEABA5" d="M51 153c-2.525 2.525-4.025 2.54-7.523 3.105l-3.344.541-3.508.542-3.484.576c-9.389 1.482-9.389 1.482-13.141.236 3.709-2.472 7.251-2.94 11.563-3.625l2.442-.4c5.729-.89 11.192-1.256 16.995-.975Z"/><path fill="#8AA0AB" d="M87 96h1l1 6c3.278-.752 3.278-.752 5-4v7h-5c-.724 3.311-1.164 6.478-1.316 9.863l-.127 2.686-.12 2.763-.13 2.823c-.106 2.288-.208 4.576-.307 6.865h7v1h-8c-.03-4.146-.047-8.292-.063-12.438l-.025-3.529C85.894 108.597 86.134 102.38 87 96Z"/><path fill="#272425" d="M39 124h1v11l17 1v1H43v2l3 1-2 2-2-1v-4h-5a444.403 444.403 0 0 1-.125-5.375l-.07-3.023C37 126 37 126 39 124Z"/><path fill="#94AAA7" d="m68 48 1 2h2l-1 4-5 1 1 2-5 1v-9c4-1 4-1 7-1Z"/><path fill="#38463D" d="M177 38c3.795 1.491 5.61 3.757 8 7l-3 1-2-2-2 4-3-1-1-2-3-1v-3l6-2v-1Z"/><path fill="#AB7C7B" d="M62 77h3c1.382 2.765 1.095 5.046 1.063 8.125l-.028 3.32L66 91h-1l-1-5-2 7h-2c-.236-5.778.132-10.513 2-16Z"/><path fill="#5A6A5C" d="M130 16h9c.403 3.523.134 4.8-1.875 7.813L135 26h-2l1-4-3 1-3-1v-3h2v-3Z"/><path fill="#A4958B" d="M140 134c2.438.813 2.438.813 5 2 1 3 1 3 0 6-2.063.688-2.063.688-4 1l.125 3.313C141 150 141 150 139 153a380.414 380.414 0 0 1-.563-4.25l-.316-2.39c-.121-2.365.183-4.111.879-6.36h3l-2-3v-3Z"/><path fill="#45484D" d="m125 68 1 2h2v6h2l1-2v2l2 1h-2v6h-8l1-4 5-1-4-1v-9Z"/><path fill="#739062" d="M46 142c2.625.938 2.625.938 5 2l-1 3h6l1 4h-8v-2l-3-1 1-2-4 1c.375-1.938.375-1.938 1-4l2-1Z"/><path fill="#C09D8D" d="M131 133v4h-23v-1h8v-2c5.07-.712 9.882-1.107 15-1Z"/><path fill="#3B3E3D" d="M157 85h2l.813 2.438L161 90l3 1 1 9c-4.13-2.065-5.64-3.124-8-7-.328-2.761-.19-5.203 0-8Z"/><path fill="#424140" d="m158 42 3 1-2 4h-2l1 9-13-2v-1h7l-5-7 1-2c4.875 4.625 4.875 4.625 6 8h2v-6h2v-4Z"/><path fill="#617571" d="m77 42-2 4-3-1-1 5-4 1 1-3-7 1 2-1v-2l5-1-2-1v-2a490.71 490.71 0 0 1 4.375-.563l2.46-.316C75 41 75 41 77 42Z"/><path fill="#56524A" d="m183 116 1 2h4l2-2c4 4.625 4 4.625 4 8l-4-1v2h2l-1 2c-3.8-1.493-5.75-3.624-8-7v-4Z"/><path fill="#585A5A" d="M138 110h1v15h2v-8h2v3h2l1 5h-3l-2 4h-3v-19Z"/><path fill="#24272A" d="M172 64c1.872 3.744 2.24 4.84 2.125 8.75l-.055 2.422L174 77l-8-1v-2l-4-1h4v-4l4-1v7h2V64Z"/><path fill="#515153" d="M133 112c2.075 3.37 2.131 5.607 1.688 9.5l-.301 2.844A53.77 53.77 0 0 1 133 131h-7v-2h3l1-3h2l-.035-2.809-.028-3.629-.035-3.62C132 113 132 113 133 112Z"/><path fill="#674E44" d="M175 135h3v4l-14 1-1 4-1-2c-2.527-.656-2.527-.656-5-1v-2h6v-2c4.333-.928 7.667-.928 12 0v-2Z"/><path fill="#2E3D31" d="M199 69h2a352.448 352.448 0 0 1 2.063 5.188l1.16 2.917c.833 3.104.664 4.844-.223 7.895l-3-1c-.984-2.363-.984-2.363-1.75-5.313l-.797-2.925c-.443-2.7-.348-4.215.547-6.762Z"/><path fill="#516857" d="m90 45-1 5 3 1-3 5-4-1 2-1-1-2-1 2h-5v-2l4-1 .375-2.438L85 46c2-1 2-1 5-1Z"/><path fill="#4D6159" d="m103 19 1 3c-1.375 2.563-1.375 2.563-3 5l-1 2 3-1-1 3-3-1-1 2c-1.563-1.063-1.563-1.063-3-3 .313-3.688.313-3.688 1-7l2.375.188L101 22l2-3Z"/><path fill="#A7A29D" d="m178 135 3 2v2h5v2h-21l-1 2v-3c2.765-1.382 5.046-1.095 8.125-1.063l3.32.028L178 139v-4Z"/><path fill="#1C1E2A" d="m113 103 1 3 2 1c-.095.915-.19 1.83-.29 2.773-.11 1.189-.22 2.377-.335 3.602l-.352 3.586L115 120l2 2c-.375 3.125-.375 3.125-1 6l-3-1v-24Z"/><path fill="#35332F" d="M173 81c2 2 2 2 2.188 5.75-.083 3.487-.503 6.825-1.188 10.25-2.5-1.75-2.5-1.75-5-4v-4h2c.687-2.49 1-4.379 1-7l1-1Z"/><path fill="#A7C4D3" d="M51 81h4v5h-2l-1 30h-1V81Z"/><path fill="#516159" d="M122 18v3h-3v2l-5 1v-2l-3-1c-.688-2.063-.688-2.063-1-4 4.517-1.369 7.588-.47 12 1Z"/><path fill="#8A6864" d="M83 129h2v4h3v3h20v1c-8.5 1.247-17.755 1.748-26-1l1-7Z"/><path fill="#82504D" d="M51 117h7l-1 13-4-1v-3h3l-1.094-1.715-1.406-2.222-1.406-2.215C51 118 51 118 51 117Z"/><path fill="#474849" d="m191 85 5 2v2l3 1-2 1 1 5-2 1-1-4h-6l1-2.313c1.174-2.678 1.174-2.678 1-5.687Z"/><path fill="#554C41" d="M193 74h2l2 7h3l1-2v5h-3v2c-1.938-.313-1.938-.313-4-1-1.283-3.85-1.066-6.947-1-11Z"/><path fill="#645F5B" d="m82 60 2 2h4l-1 4 6-1 1 4h2l-1 11h-1v-8l-4-1 3-3-7-1-1 2v-4l-4-2 1-3Z"/><path fill="#C6DED6" d="m39 32 2 1-20 20c0-4.189 2.326-5.93 5.063-8.813l1.51-1.62C31.17 38.757 34.906 35.275 39 32Z"/><path fill="#40443C" d="M130 30h3v2h2v-2l4 1-1 2-2-1v2h2l-1 2c2.868 2.102 2.868 2.102 6 3v-2l3 1h-2v2l-3 1-2-1 1 3h-2c-1.438-2.082-1.438-2.082-3-4.813-1.61-2.788-3.213-5.506-5-8.187Z"/><path fill="#CBD6E2" d="M86 14c-.625 1.875-.625 1.875-2 4-3 1.188-3 1.188-6 2l-2 1-1-5-3-1c5.16-1.513 8.66-2.335 14-1Z"/><path fill="#B4A88F" d="M190 134h5v4h-2l-.188 2.875L192 144c-2.563 1.375-2.563 1.375-5 2l1-6 3 1v-2h-2l1-5Z"/><path fill="#5E4B4F" d="m100 68 2 1-1 10h-5v-9l4-2Z"/><path fill="#728275" d="m86 51 3 1h-2l1 7h-3l-1 2-2-1-1 2-5-2 1-2h5v-4c1.813-1.813 1.813-1.813 4-3Z"/><path fill="#989F94" d="M75 191v2l2.25-.5C80 192 80 192 84 192v3h2v2l4 1c-7.031-.434-13.329-1.743-20-4 2.75-3 2.75-3 5-3Z"/><path fill="#5A583D" d="M146 137c3 1 3 1 4 2 .072 1.52.084 3.042.063 4.563l-.028 2.503L150 148l-1.332-1.52L147 145c-2.655.23-2.655.23-5 1l-1-3 4-1 1-5Z"/><path fill="#514C43" d="M203 97h3c-.412 4.97-.796 9.445-3 14l-2-1c-.594-2.649-.742-5.292-1-8h2l1-5Z"/><path fill="#B5A98D" d="m98 147-1 3-2-1-1 3-1-2-2.875.563C87 151 87 151 85 150l-1 3-6-2v-2c2.77-.335 5.541-.668 8.313-1 .785-.095 1.57-.19 2.38-.29l2.295-.273 2.11-.253C95 147 95 147 98 147Z"/><path fill="#BA9374" d="m154 135 10 1-1 3h-6l1 6-3 2c-.981-3.053-.981-4.947 0-8l-2-1 1-3Z"/><path fill="#412F2B" d="M138 133h2l2 7-7 1v-4h-3v-3l6 1v-2Z"/><path fill="#95AFB6" d="M72 107h2v23h-2a2488 2488 0 0 1-.563-10.375l-.17-2.984-.146-2.852-.143-2.634C71 109 71 109 72 107Z"/><path fill="#23211E" d="m142 45 3 9h7v2c-6.483.367-6.483.367-8.938-1.375C142 53 142 53 142 51l-4-1v-4c2-1 2-1 4-1Z"/><path fill="#37322F" d="M134 123h1v7h2l1-2 3 1v-2h2l1 4c-6.697 1.03-13.231 1.102-20 1l1-2c5.75-.125 5.75-.125 8 1l1-8Z"/><path fill="#92614E" d="m103 123 2 1-1 2h2l1 7H97v-1h6v-4l-6-2c1.875-1.063 1.875-1.063 4-2l2 1v-2Z"/><path fill="#8BA27E" d="m195 135 7 1c-.375 2.938-.375 2.938-1 6l-2 1v-2h-4l-1 2-1-5h2v-3Z"/><path fill="#1B2923" d="M13 127c1.938.813 1.938.813 4 2l1 3h-2l-2-2c-2.296 3.445-2.54 5.938-3 10l4-1-1 2h-4c-2.429-7.429-2.429-7.429-1-11h3l1-3Z"/><path fill="#4C5F54" d="M69 54c2.063.438 2.063.438 4 1l1 6h-3l.625 2.313C72 66 72 66 70 69h-2c-.027-2.312-.046-4.625-.063-6.938l-.035-3.902C68 55 68 55 69 54Z"/><path fill="#2F3D33" d="M91 52h2v2l3-1 1 3c-1.974 2.523-2.967 2.993-6.188 3.688L88 60c.75-5.75.75-5.75 3-8Z"/><path fill="#7A7E86" d="M144 45c3.175.34 4.023 1.025 6.25 3.438C152 51 152 51 152 53c-2.333.042-4.667.04-7 0-1-1-1-1-1.063-4.563L144 45Z"/><path fill="#93A0A3" d="m100 44 3 1v2l2 1-5 1v2l2 1-7-1-1-5 3 1 3-3Z"/><path fill="#8F8B5C" d="M70 145c1.691.09 3.38.246 5.063.438l2.785.308L80 146l-1.922.867c-2.494 1.36-3.042 2.544-4.078 5.133h-5c-.043-2-.04-4 0-6l1-1Z"/><path fill="#272D33" d="M70 137c2.813.188 2.813.188 6 1 1.852 2.408 3 3.927 3 7h-9v-8Z"/><path fill="#1F242A" d="M57 137h9v13h-1l-1-9h-5l-1 5h-1v-9Z"/><path fill="#8AA1B1" d="M172 64v11h-2v-4l-2-1 1-1h-3v3h-2l2-7c2.076-.553 3.844-1 6-1Z"/><path fill="#C1BAA8" d="m68.547 152.34 2.558.283 2.645.315 2.691.302c2.187.247 4.373.5 6.559.76l-1 2-22-1v-2c3.04-.923 5.4-1.022 8.547-.66Z"/><path fill="#41413D" d="M134 84h1v7h-13l2-1v-2l9-1 1-3Z"/><path fill="#8E9AAA" d="m18 68 1 3 8 1v2l3 1c-5.681-.921-11.339-1.964-17-3v11h-1V71l5-2 1-1Z"/><path fill="#717A85" d="M123 65c5.774.481 9.959 2.185 15 5v6l-1-4-6-1v-2l-2.875-.313C125 68 125 68 123 65Z"/><path fill="#C4BDAD" d="m101 154-1 3c-2.438 1.125-2.438 1.125-5 2l-2 1-2-3-3-2c4.76-1.974 7.965-2.007 13-1Z"/><path fill="#6E6B6C" d="m142 124 4 1v9h6l-1 2c-6.523-.492-6.523-.492-8.938-3.063L141 131h3l-1-1.813C142 127 142 127 142 124Z"/><path fill="#0E1111" d="m197 105 2 1v9l-4 1c-1.354-6.4-1.354-6.4.438-9.438L197 105Z"/><path fill="#2A2928" d="m142 94 3 2h-2l1 3c-4.75 4.875-4.75 4.875-7 6v-9l4-1 1-1Z"/><path fill="#454247" d="M38 80h1v20h2l-1 2h-3l-2-5h2v-4l-2-1 3-1V80Z"/><path fill="#959890" d="M109 192h4c-1.875 3.875-1.875 3.875-3 5l10 1v1c-2.291.08-4.583.14-6.875.188l-3.867.105L106 199l-2-3 1.938-.875c2.214-.953 2.214-.953 3.062-3.125Z"/><path fill="#37434B" d="M135 100h1l.076 2.032c.116 3.052.239 6.104.362 9.156l.119 3.197.127 3.095.11 2.841c.148 2.703.148 2.703.788 5.399C138 128 138 128 137 130h-2c-1.287-10.1-.73-19.89 0-30Z"/><path fill="#696C6F" d="m126 68 7 2v2h2l-1 5-6-1v-6h-2v-2Z"/><path fill="#343B39" d="m179 44 4 4-1 3-1-1v8l-2-3-1 2h-2v-2l-2-1 4-1 1-9Z"/><path fill="#92A9BD" d="M73 27h3v2c6.367 2.25 6.367 2.25 13 3v3c-1.626-.309-3.25-.622-4.875-.938l-2.742-.527C79 33 79 33 77 32v-2l-8 1 4-2v-2Z"/><path fill="#627469" d="m109 16 3 1-1 1c.776 3.075.776 3.075 3 5l-2.313.813c-2.56 1.131-3.884 2.1-5.687 4.187l-1-2 1-3h2l-.625-1.813C107 19 107 19 109 16Z"/><path fill="#ADB494" d="M120 147c-3.75 2-3.75 2-6 2l-1 4h-9v-3l5.957-1.465c3.576-.937 6.314-1.636 10.043-1.535Z"/><path fill="#9A6660" d="M63 104h2v11l-5 1c.857-8.571.857-8.571 3-12Z"/><path fill="#373737" d="M143 96h2c.488 6.338.488 6.338-1.75 9.375-2.178 1.573-3.616 2.249-6.25 2.625l1-8 2 3c2.259-3.254 2.259-3.254 3-7Z"/><path fill="#99ABBE" d="m183 57 1 2h5v4h-3v4h-3c-.95-3.695-.95-6.305 0-10Z"/><path fill="#707983" d="M144 56h5v9l-1-2h-2v11h-1l-1-18Z"/><path fill="#757B6D" d="M111 54h1v5l3-1-1 3-7-1v2l2 1h-7c1.258-3.775 2.559-4.198 6-6l3-1v-2Z"/><path fill="#698283" d="M77 30v2l5 1-2 1-1 2-1-3h-2v2h-3l-1 3-.938-2.375c-.99-2.548-.99-2.548-2.062-4.625 2.928-.976 4.956-1.082 8-1Z"/><path fill="#768F8E" d="M78 24c1.691.09 3.38.246 5.063.438l2.785.308L88 25l-1 5-3-1v-2c-3.118.646-3.118.646-4 3l-4-1c.875-3.875.875-3.875 2-5Z"/><path fill="#8B8972" d="m64 148 1 4c-4.927 1.97-8.78 2.18-14 2 3-2 3-2 7-2v-3c2-1 2-1 6-1Z"/><path fill="#2D3F34" d="M40 146v5c-3.522.08-6.62.04-10-1l1-2h3v-2c2.49-1.245 3.41-.777 6 0Z"/><path fill="#383529" d="m175 126 4 2v2l8 1v4c-3.66.333-5.395.462-8.375-1.813C177 131 177 131 177 128h-2v-2Z"/><path fill="#161A1D" d="M35 125v2c-2.273 1.495-4.568 2.784-7 4l-2 4v-10c3.378-.845 5.675-1.108 9 0Z"/><path fill="#808995" d="M27 100v11h-4v-10c2-1 2-1 4-1Z"/><path fill="#536D78" d="M53 97h5v19h-3l1-3c.241-4.99.213-8.444-2-13l-1-3Z"/><path fill="#29444D" d="M28 89h6v7l-5 1-1-8Z"/><path fill="#5B696F" d="M108 72c1.46.45 2.918.91 4.375 1.375l2.46.773C117 75 117 75 119 77c-3.674 1.176-7.17 1.074-11 1v-6Z"/><path fill="#3B3837" d="m154 65 5 1 1 3c2.015.733 2.015.733 4 1v2l-3 1v2l-3-1v-3l-3 1-1-7Z"/><path fill="#566561" d="m89 31 4 1v8l-7-1 1-4h2v-4Z"/><path fill="#AD9F97" d="M137 131c4.75.75 4.75.75 7 3 2.655.565 5.291.738 8 1v6h-2v-2l-3-1a274.838 274.838 0 0 1-5.188-2.563l-2.73-1.378L137 133v-2Z"/><path fill="#4B453C" d="M190 101h1l.875 3.688c.612 2.502 1.266 4.63 2.313 7 .989 2.815.62 4.481-.188 7.312-2.313-2.313-2.496-3.479-3.125-6.625l-.508-2.477L190 108h-2l1-3c.342-1.331.678-2.664 1-4Z"/><path fill="#956D6D" d="M77 86h1l1 11h2l1 4h-3l-1 5h-1V86Z"/><path fill="#3F3933" d="M186 56h4l2 2h3l1 5-4 1v-2l-3 1-.375-1.938L188 59l-2-1v-2Z"/><path fill="#313639" d="M163 59c3.147.7 6.026 1.76 9 3l-2 1-1 3-3-1-1 5c-2.68-4.019-2.156-6.242-2-11Z"/><path fill="#8FA296" d="m96 15 1 2 3 1-2 1-2-1-1 3-2-1v2l2 1h-2l-1 3-4-1h2v-7l5 1 1-4Z"/><path fill="#8E9A91" d="M133 191h2c1.625 2 1.625 2 3 4-1.894.507-3.79 1.006-5.688 1.5l-3.199.844c-2.824.595-5.241.784-8.113.656l4-2 2.063-1.125C129 194 129 194 132 194l1-3Z"/><path fill="#5D8068" d="M15 138h1l1 6 6 2-1 3-5-1v-2l-3-1v-2l-2 2-1-4 3-1 1-2Z"/><path fill="#92949A" d="M12 113c1.5 1.063 1.5 1.063 3 3 .188 3.688.188 3.688 0 7H6v-1h5l-.063-3.375C11 115 11 115 12 113Z"/><path fill="#0D0D0C" d="m178 98 8 3v8l-5-5-1.813-1.625C178 101 178 101 178 98Z"/><path fill="#2C2925" d="M166 96c3.499 1.397 4.709 2.713 6.25 6.125l1.016 2.195L174 106c-5.75-1.75-5.75-1.75-8-4-.125-3.125-.125-3.125 0-6Z"/><path fill="#ABC5D8" d="M87 73h7v6h-7l2-1v-2h-2v-3Z"/><path fill="#5D6364" d="M174 65c2.853 2.43 2.985 2.84 3.375 6.875-.145 3.763-.994 6.127-3.375 9.125l-3 2 .938-1.688C174.37 76.016 174.112 70.713 174 65Z"/><path fill="#606B58" d="M92 58h2l1 2 3 2 1 2 1-2 1 5-2 1-3-2v-3h-6l2-5Z"/><path fill="#7B8585" d="m114 43 1 1 2-1v4l-6 3-1-4h-4v-2c5.75-2.125 5.75-2.125 8-1Z"/><path fill="#95615F" d="M61 117h5v11h-6v-3l3-2c.73-2.563.73-2.563 1-5l-3-1Z"/><path fill="#646159" d="m178 106 4 2v2l2 1a78.037 78.037 0 0 1 2 5l3-1-1 4c-2.96-.317-3.984-.984-6.125-3.125-2.176-3.336-2.968-6.02-3.875-9.875Z"/><path fill="#AA7B7E" d="M48.563 65.938 51 66c.125 5.75.125 5.75-1 8l-5-1c-.043-2-.04-4 0-6 1-1 1-1 3.563-1.063Z"/><path fill="#35403D" d="m119 28 3 6-3-1-1 3-6-1v-3l6-1 1-3Z"/><path fill="#D3CDC4" d="M136 141h3l-1 9-4 1c-.25-6.625-.25-6.625 2-10Z"/><path fill="#414342" d="M162 102c2.468 1.152 4.048 2.048 6 4h-2v10l-2 1v-11h-2v-4Z"/><path fill="#69797E" d="m121 92 3 1c.08 1.79.14 3.583.188 5.375l.105 3.023L124 104l-3 2V92Z"/><path fill="#9FB3BF" d="M16 62h1v8l-2.375-.188L12 70l-2 3c.615-6.523.615-6.523 2.563-8.938L14 63v2h2v-3Z"/><path fill="#52585A" d="M178 54c2 1 2 1 3.125 3.75.795 2.952 1.053 5.222.875 8.25l-2-1c-.625-2.063-.625-2.063-1-4l-2 2-3-8h2v2h2v-3Z"/><path fill="#7B8493" d="M131 56h1l1 4 1-4h1v10c-4-1-4-1-5-2-.125-3.5-.125-3.5 0-7l1-1Z"/><path fill="#A5A3A7" d="M124 54h5l-2 1v4h-7l-2 4v-7l5 1 1-3Z"/><path fill="#354042" d="M97 33c2.633.905 3.775 1.656 5.313 4l.687 2-1 2h-2v-2h-4l-1-5 2-1Z"/><path fill="#C19F8C" d="M97 132v2h8v1l-17 1v-3c6.75-1 6.75-1 9-1Z"/><path fill="#819AA2" d="M54 100c2 1 2 1 2.621 2.734.426 2.547.475 4.935.441 7.516l-.027 2.703L57 115l-1-2h-2v-13Z"/><path fill="#8EA3A7" d="M86 39h2l-1 4-4 1v3h2l-1 4h-3c-.23-3.367-.34-5.414 1.375-8.375L84 41h2v-2Z"/><path fill="#616E73" d="M96 39h4v2h2v-2h2c-.188 1.875-.188 1.875-1 4-2.375 1.375-2.375 1.375-5 2l-3-2 1-4Z"/><path fill="#676C66" d="M136 38c1.313 2.625 1.313 2.625 2 5-1.938-.813-1.938-.813-4-2l-1-3-2 4-3-1c-.688-2.063-.688-2.063-1-4 3.601-1.334 5.688-.917 9 1Z"/><path fill="#627165" d="M128.125 20.938c.949.35 1.898.7 2.875 1.062l-4 1 5 2v2h-3l-1 2v-3h-2v-2l-4 1c.375-1.938.375-1.938 1-4 2-1 2-1 5.125-.063Z"/><path fill="#C3BBAE" d="m45 158-2 2 2 1v2l-3.813.125-2.144.07C37 163 37 163 34 161h3v-2c2.928-.976 4.956-1.082 8-1Z"/><path fill="#131519" d="M43 137h8v7l-3-1v-2l-5-2v-2Z"/><path fill="#2D2F38" d="M95 71h1v8h5c-1.708 2.106-2.521 2.938-5.262 3.293l-2.425-.106-2.45-.082L89 82v-2h6v-9Z"/><path fill="#2E2520" d="M131 66c2.75.188 2.75.188 6 1 2.125 2.438 2.125 2.438 4 5l2.188 1.063C145 74 145 74 145.75 76.124L146 78h-2c-1.262-1.39-1.262-1.39-2.688-3.25-3.05-3.714-6.034-5.611-10.312-7.75v-1Z"/><path fill="#141819" d="m159 61 2 1v2h3v6l-2 1-3-2c-.408-2.712-.133-5.244 0-8Z"/><path fill="#4F524E" d="M131 38h2v2l3 1h-2v3l2 1-7 2-1-2c.851-2.432 1.848-4.697 3-7Z"/><path fill="#4C5249" d="M127 30c3.27.564 4.826 1.5 7 4l-1 3h-5v-3l-2-1 1-3Z"/><path fill="#798973" d="m113 23 5 1-1 2c-2.563.625-2.563.625-5 1v3c-3 2-3 2-5 3l-1-3 4-2v-3h3v-2Z"/><path fill="#B47352" d="M96 103c1.807 3.614 2.562 6.054 3 10l-1 1c-.235 2.35-.414 4.706-.563 7.063l-.253 3.91L97 128h-1v-25Z"/><path fill="#708089" d="M69 75h1v19l4-1v3h-3l-1 2c-1.834-3.668-1.435-8.017-1.625-12.063l-.156-2.837-.133-2.698-.124-2.484C68 76 68 76 69 75Z"/><path fill="#4D4943" d="M137 86c3.806.672 7.352 1.727 11 3v1l-11 1v-5Z"/><path fill="#514D48" d="M156 71h2c1.906 3.212 2.223 5.539 2.125 9.25l-.055 2.703L160 85h-3l.625-2.125c.456-3.494-.416-5.603-1.625-8.875v-3Z"/><path fill="#576D6D" d="M82 36h2l2 5-6 5v-2h-2c1.75-4.875 1.75-4.875 4-6v-2Z"/><path fill="#6C624A" d="M192 141h7v4h-3v2l-4-1v-5Z"/><path fill="#38443E" d="m202 116 5 2-1 9c-2.82-1.41-2.981-3.079-4-6-.688-2.25-.688-2.25-1-4l1-1Z"/><path fill="#181F48" d="M115 114h2l.438 3.313c.445 3.618.445 3.618 1.562 6.687.04 2.333.044 4.667 0 7l-1-3h-2l.125-2.875c.225-3.227.225-3.227-2.125-5.125.375-3.125.375-3.125 1-6Z"/><path fill="#959497" d="M33 114h5v8h-5v-8Z"/><path fill="#BD8A86" d="m58 68 1 4h3v2c-3.674 1.176-7.17 1.074-11 1v-5h2v3h5v-5Z"/><path fill="#BBC8D8" d="m30 64 3 1-1 9h-5v-2h3v-3h-2v-3h2v-2Z"/><path fill="#869C99" d="m68 48 1 2h2l-1 4-6-2v-2h-2l1 4h-2v-5c2.49-.687 4.379-1 7-1Z"/><path fill="#798490" d="M154.188 43.938 156 45v7h-2c-1.29-1.75-1.29-1.75-2.625-4l-1.352-2.25L149 44c3-1 3-1 5.188-.063Z"/><path fill="#515649" d="M152 28a88.354 88.354 0 0 1 4 2v2h-5v-2l-7 1v-2c3.09-1.876 4.596-2.276 8-1Z"/><path fill="#9EA698" d="M22 160h6c1.125 1.75 1.125 1.75 2 4l-2 4-6-8Z"/><path fill="#465333" d="M107 143h6v2h2v3c-3.473 1.158-6.36 1.069-10 1v-2l5 1 1-3-4-2Z"/><path fill="#485952" d="M20 132h1l1 8 4 1c-4.75 3-4.75 3-7 3-1.456-4.52-.27-7.516 1-12Z"/><path fill="#446045" d="M203 127h2l-2 10-5-1 2-2-1-3 4-2v-2Z"/><path fill="#282622" d="M97 126c2.169.506 4 1 6 2v4h-6v-6Z"/><path fill="#45454D" d="M20 107h3v4h4l1-4v4h8v1H21l-1-5Z"/><path fill="#404243" d="M146 103c.37 7.508.37 7.508-1.5 10l-1.5 1v-3h-2c-.366-4.517-.366-4.517 1.375-6.813C144 103 144 103 146 103Z"/><path fill="#4C4A46" d="m120 86 1 4-3.813-.375-2.144-.21C113 89 113 89 110 87c3.473-1.158 6.36-1.069 10-1Z"/><path fill="#5C595A" d="m35 79 4 1-1 8-3 1c-1.231-3.694-.644-6.206 0-10Z"/><path fill="#3B2726" d="M102 64h3v14h-2l-1-14Z"/><path fill="#46534A" d="M65 60h2l-1 10-4-1v-6h3v-3Z"/><path fill="#AEAEC3" d="m61 58-1 3-18 1 1-2c2.766-.633 2.766-.633 6.25-1.125l3.453-.508A59.468 59.468 0 0 1 61 58Z"/><path fill="#768A7D" d="M96 18h8l-3 5-8-1v-2h2l1-2Z"/><path fill="#81785B" d="m76 150 10 2 2.832.566L91 153v1H76v-4Z"/><path fill="#526445" d="M85 144h5v3h5v1H83l2-4Z"/><path fill="#A3A191" d="M98 138h3l.586 6.055c.278 2.172.278 2.172 2.414 3.945l-3 1c-1.5-1-1.5-1-3-3-.273-2.718-.135-5.257 0-8Z"/><path fill="#A09F93" d="M132 137h3c1.15 3.553 1.087 4.8-.438 8.313L133 148l-.375-1.938L132 144l-2-1h2v-6Z"/><path fill="#8E8E97" d="m27 115 4 1v7h-4v-8Z"/><path fill="#4E5458" d="M34 79h1c.125 6.75.125 6.75-1 9h-5v-5h2l1-2v4h2v-6Z"/><path fill="#7D98B2" d="M78.813 36.688 81 37l-1 4-9 1c4.308-4.923 4.308-4.923 7.813-5.313Z"/><path fill="#BFB8AB" d="m63 156 1 4h-7l-1-2-3-2c3.576-1.238 6.337-.75 10 0Z"/><path fill="#75755C" d="M57 146c2.007.287 4.009.619 6 1-3 2-3 2-5 2v3l-9 1v-2c5.75-1.125 5.75-1.125 8 0l-.563-1.938L56 147l1-1Z"/><path fill="#938978" d="M97 146c2.962.613 4.38 1.254 7 3v3l-5 1-2-7Z"/><path fill="#BFA38E" d="M147 144c2 2 2 2 2 6l-7-1v-3l5-2Z"/><path fill="#3A4E59" d="M34 131c1.125 3.75 1.125 3.75 0 6h-2v2l-6 1 1-3 3-1a95.29 95.29 0 0 0 4-5Z"/><path fill="#788B93" d="m122 103 2 1c.043 1.666.04 3.334 0 5l-1 1a167.62 167.62 0 0 0-.563 6.563l-.253 3.628L122 123h-1c-.027-2.77-.047-5.542-.063-8.313l-.025-2.38-.01-2.295-.016-2.11C121 106 121 106 122 103Z"/><path fill="#898384" d="M22 113c2.063.438 2.063.438 4 1l-1 8h-3c-.879-6.152-.879-6.152-1-8l1-1Z"/><path fill="#28352D" d="m206 100 2 1v15h-1v-9l-3-1 2-6Z"/><path fill="#4E5E59" d="m206 83 1 9-3-3v-2l-4 1c.313-1.938.313-1.938 1-4 3-1 3-1 5-1Z"/><path fill="#786D63" d="m196 72 3 1 1 8h-3c-1.478-2.957-1.06-5.742-1-9Z"/><path fill="#3E4C44" d="M130 16h9v5c-5.516-.613-5.516-.613-7.875-2.5C130 17 130 17 130 16Z"/><path fill="#869988" d="m110 13 1 2h2l-1 2h-3l-2 4-2-1v-1l-3-2 1-2h7v-2Z"/><path fill="#9FB1A4" d="M104 11h10l-1 2h-3v2h-5l-1-4Z"/><path fill="#A38F8C" d="M146 132h13v2c-4.655.838-8.37 1.016-13 0v-2Z"/><path fill="#20272E" d="m32 127 3 1-3 2a132.038 132.038 0 0 0-3 5 163.192 163.192 0 0 1-3 4c.06-1.46.149-2.918.25-4.375l.14-2.46C27 130 27 130 28.985 128.772L31 128l1-1Z"/><path fill="#525152" d="M150 112c.345 1.33.675 2.665 1 4l.625 2.5c.382 2.545.18 4.083-.625 6.5h-2c-.027-1.98-.046-3.958-.063-5.938l-.035-3.34C149 113 149 113 150 112Z"/><path fill="#6A777F" d="M72 86h2v7l-4 1c-.125-2.875-.125-2.875 0-6l2-2Z"/><path fill="#272F36" d="M102 69h1v9l8 1v1l-10 1 1-12Z"/><path fill="#687681" d="M55.625 74.875 58 75v5h-5v-2l-2-1c2-2 2-2 4.625-2.125Z"/><path fill="#1C1815" d="m152 54 4 1v8l-2 1c-1.604-3.508-2.22-6.144-2-10Z"/><path fill="#455241" d="M131 47h3v8h-2v-2l-5-1 3-3 1 1v-3Z"/><path fill="#586855" d="M125 45c2 3 2 3 3 6-3.215 1.607-6.436 1.057-10 1 1-2 1-2 4-3l1-2h2v-2Z"/><path fill="#697F76" d="M63 46h8v4l-4 1 1-3-7 1 2-1v-2Z"/><path fill="#828B80" d="M125 40h2v2h2l-1 4-3-1v2h-2v2h-2l1-5h4l-1-4Z"/><path fill="#5A6E59" d="m140 23 1 3h-2v3l-3 1-1 2h-2v-4c1.531-1.484 1.531-1.484 3.5-2.75l1.969-1.297L140 23Z"/><path fill="#C9CAC4" d="M132 144v6l-3 1-1-2 1-3h-2l-1 2v-3c2-1 2-1 6-1Z"/><path fill="#20291D" d="M200 132v2l2 1c-2.75.75-2.75.75-6 1-2.375-1.938-2.375-1.938-4-4 2.862-1.43 4.934-.6 8 0Z"/><path fill="#776F63" d="M194 118h2l1 10-3-1c-.879-6.152-.879-6.152-1-8l1-1Z"/><path fill="#5D656D" d="M16 99h3l-2 8h-5v-3l4-1v-4Z"/><path fill="#8599A2" d="M72 101h2v6l-5 1c.75-4.75.75-4.75 3-7Z"/><path fill="#8BAAB5" d="M57 86h1v5h-4l-1 5h-1c-.125-6.75-.125-6.75 1-9l4 1v-2Z"/><path fill="#4E5559" d="M177 79h1c.081 1.437.14 2.874.188 4.313l.105 2.425c-.355 2.74-1.187 3.554-3.293 5.262-.286-8.571-.286-8.571 2-12Z"/><path fill="#525A60" d="M135 72h2l1 3 2 1-1 4-6-2 2-6Z"/><path fill="#43484B" d="m152 59 2 1c.414 2.504.414 2.504.625 5.563l.227 3.066L155 71l-3 2V59Z"/><path fill="#B8C5D5" d="M22 62c2.34.287 4.674.62 7 1l-1 3-5 1-2-4 1-1Z"/><path fill="#76777D" d="M160 47h2l4 9c-3-1-3-1-5-3h-2a99.984 99.984 0 0 1 0-5l1-1Z"/><path fill="#789080" d="m88 39 4 2-2 1-1 3c-3.063 1.188-3.063 1.188-6 2v-3l1.938-.813C87.33 42.114 87.33 42.114 88 39Z"/><path fill="#C2D8ED" d="M60 40c3.113 0 5.108.174 8 1h-3l-1 3-2-1-1 7-2-1 1-9Z"/><path fill="#586F6E" d="M81 27h3v2l3 1-1 3c-1.875-.25-1.875-.25-4-1-1.25-2.063-1.25-2.063-2-4l1-1Z"/><path fill="#42514A" d="m110 23 3 2h-3v3l-3 2c-1.205 2.552-1.205 2.552-2 5h-1l1-7 3-1c1.209-2 1.209-2 2-4Z"/><path fill="#7B8E7A" d="M127 14v2h-3v2h2l-1 3-3 1-1-7c2-1 2-1 6-1Z"/><path fill="#AD9F97" d="m174 147 8 1v2c-3.473 1.158-6.36 1.069-10 1l2-4Z"/><path fill="#92827C" d="M169 147c2.313-.188 2.313-.188 5 0l3 3h-18v-1l10-1v-1Z"/><path fill="#3C634A" d="m14 142 1 3 2 1v2l3 1-3 3c-2.063-2.188-2.063-2.188-4-5 .25-2.813.25-2.813 1-5Z"/><path fill="#A5ADB2" d="M186 126h5l1 4h-7l1-4Z"/><path fill="#A8B4BC" d="m39 101 2 1v10l-4-2v-2h2v-7Z"/><path fill="#454845" d="M154 81c2.603 2.712 2.995 3.891 3.188 7.75L157 92c-2.063-1.563-2.063-1.563-4-4 .25-3.75.25-3.75 1-7Z"/><path fill="#33342C" d="M191 64c2.503 2.938 3.47 5.179 4 9l-5-2v-3l-2-1 3-3Z"/><path fill="#777773" d="M179 60h1l1 5h2v2l3 1h-6l-1-2c-2.017-1.134-2.017-1.134-4-2l3-1 1-3Z"/><path fill="#73787E" d="M168 48v3h2v5c-4.8-2.462-4.8-2.462-5.813-5.188L164 49c2-1 2-1 4-1Z"/><path fill="#BDB6AA" d="m123 144 3 3 3-1v6c-3-1-3-1-6-3-.75-2.063-.75-2.063-1-4l1-1Z"/><path fill="#889F9B" d="M120 141h9l-1 2c-2.285.633-2.285.633-5.063 1.125l-2.785.508L118 145l2-4Z"/><path fill="#7E927D" d="M39 137h3v7h-2v-2l-3 1 2-6Z"/><path fill="#8B8782" d="M140 134c2.438.813 2.438.813 5 2 1 3 1 3 0 6-2.514-1.257-3.483-2.656-5-5v-3Z"/><path fill="#19171B" d="M12 107h8v3l-8 1v-4Z"/><path fill="#695F52" d="M151 86c4.413 3.152 7.008 6.555 10 11l-3 1a971.577 971.577 0 0 1-3.5-4.875l-1.969-2.742C151 88 151 88 151 86Z"/><path fill="#23211C" d="m182 78 8 8h-4v-2l-1.875-.313C182 83 182 83 180 80h2v-2Z"/><path fill="#314B44" d="M202 74c2.144 3.216 2.676 5.19 3 9l-2 2-2-1 1-10Z"/><path fill="#B0C0CF" d="M15 60h3l1 8-2 1-1-4h-2l1-5Z"/><path fill="#5F6F60" d="M100 32h4l1 2h2v2l-6 2-2-5 1-1Z"/><path fill="#485573" d="m88 18-1 2h-3l-1 3c-4.875-1.75-4.875-1.75-6-4 3.734-.879 7.168-1.09 11-1Z"/><path fill="#26332B" d="m113 120 4 2-1 6-3-1v-7Z"/><path fill="#5D6067" d="M91 67h3v2h2l-1 11h-1v-8l-4-1 3-3-2-1Z"/><path fill="#414B3F" d="M96 53h2l1 6 3 1-7 1c0-2.84.403-5.237 1-8Z"/><path fill="#92AEC7" d="m71 34 2 3 3 1a141.4 141.4 0 0 1-5 5h-2l-1-4h3v-5Z"/><path fill="#887B78" d="m136 131 2 4-6-1-1 3v-4l-4-1 9-1Z"/><path fill="#5D594B" d="M175 121c1.5 1.375 1.5 1.375 3 3v2l4 1v3c-3 0-3 0-4.625-1.125-1.849-2.521-2.034-4.809-2.375-7.875Z"/><path fill="#565759" d="M144 107c1.804 2.76 2.013 3.89 1.625 7.25L145 117l-4-1v-5h2l1-4Z"/><path fill="#323231" d="M162 91h2l1 9-3-1v-8Z"/><path fill="#53504A" d="M193 88c2.438.375 2.438.375 5 1l1 2h-2l1 5-2 1c-1.354-2.709-1.065-5.01-1-8l-2-1Z"/><path fill="#23201A" d="M190 82h4l1 3c2.015.733 2.015.733 4 1v3h-3v-2l-1.875-.938L190 84v-2Z"/><path fill="#758369" d="m126 45 3 1c2.143-.39 2.143-.39 4-1v2h-2l1 4-5-1-1-5Z"/><path fill="#748976" d="m77 41 2 1-1 2h2l1 3h-7c1.875-4.875 1.875-4.875 3-6Z"/><path fill="#6A8383" d="M177 38c3.875 1.75 3.875 1.75 5 4l-6 2-2-3 3-3Z"/><path fill="#C7C0B4" d="M133 155h7c-1.133 3.4-2.125 4.053-5 6l-2-2h2l-2-4Z"/><path fill="#A2A494" d="M196 145h2l-2 6h-5l1-4h4v-2Z"/><path fill="#A2A381" d="M57 148v3h-8v-2c3.067-1.862 4.597-2.215 8-1Z"/><path fill="#864944" d="M51 131h2v2h4v3h-6v-5Z"/><path fill="#414430" d="m162 125 3 1h-2v3l-9 1 2-1v-2h6v-2Z"/><path fill="#6E6964" d="m130 126 3 1v4h-7v-2h3l1-3Z"/><path fill="#576351" d="m114 126 2 4h-2v2h-4c.313-1.875.313-1.875 1-4l3-2Z"/><path fill="#885553" d="m51 117 6 1v4h-4l-2-5Z"/><path fill="#515B64" d="M14 84h2v5h3v2l-5 1v-8Z"/><path fill="#4A423A" d="M162 81c2 3 2 3 2 5l3 1-2 3-4-2 1-7Z"/><path fill="#393E45" d="m15 82 9 1c-3 2-3 2-7 2l-1 4-1-7Z"/><path fill="#60656C" d="M138 71c2.5 1.813 2.5 1.813 5 4v3h-2v2h-2l-1-9Z"/><path fill="#151A1D" d="M169 68c1 3 1 3 1 5-1.75 1.125-1.75 1.125-4 2-2.25-.875-2.25-.875-4-2h4v-4l3-1Z"/><path fill="#A36866" d="M43 67h2c1.374 3.818.68 7.073 0 11h-2V67Z"/><path fill="#A27E85" d="M71 67c2.063.438 2.063.438 4 1v5h-4l1-4-2-1 1-1Z"/><path fill="#45413B" d="M165 53c4.313 1.757 7.903 4.806 10 9-2.938-.813-2.938-.813-6-2l-1-3-3-2v-2Z"/><path fill="#3A3027" d="M147 44c4.511 2.195 6.063 4.412 8 9-3.794-1.49-5.683-3.69-8-7v-2Z"/><path fill="#364F45" d="M167 30a56.54 56.54 0 0 1 7 4v2h-5l-2-6Z"/><path fill="#945D54" d="M67 133h9v3h-6v-2l-3-1Z"/><path fill="#292B2D" d="M183 90h1v10l-5-1 2-1v-3h2v-5Z"/><path fill="#8E717A" d="M79 74c1.125 1.688 1.125 1.688 2 4-.875 2.75-.875 2.75-2 5h2v2l-3 1c-.027-1.625-.046-3.25-.063-4.875l-.035-2.742C78 76 78 76 79 74Z"/><path fill="#5A6F5E" d="m79 52 4 2-1 5h-2c-1.625-2.5-1.625-2.5-3-5h2v-2Z"/><path fill="#444D44" d="M118 52h8l-2 1v2c-3 1-3 1-6 0v-3Z"/><path fill="#5E6D66" d="m94 51 5 1 1 6 3 1h-4l-1-6-5 1 1-3Z"/><path fill="#8D999F" d="M172 45h3v2l3 1v2h-6v-5Z"/><path fill="#80868E" d="M162 37v5h-4l-2-4c2.076-.553 3.844-1 6-1Z"/><path fill="#494946" d="m161 34 2 1v3h4l-1 4-4-2v-3l-2-1 1-2Z"/><path fill="#A4BFCE" d="M73 27h3v2l4 2-3 1v-2l-8 1 4-2v-2Z"/><path fill="#919192" d="m27.688 156.438 2.449.308L32 157v1l-11 1-1-2c3.095-1.032 4.526-.975 7.688-.563Z"/><path fill="#666158" d="m198 118 2 4 2 1v4h-3l-1-9Z"/><path fill="#0F100E" d="M204 107h3c.25 6.625.25 6.625-2 10l-1-10Z"/><path fill="#8BA8AC" d="m9 71 2 3c-1.375 3.688-1.375 3.688-3 7H6l3-10Z"/><path fill="#A1A5B2" d="M40 71h3v7l-4-2 1-5Z"/><path fill="#DCE2F1" d="m42 62 3 1c1.664.348 3.33.684 5 1v1c-8.571 1.429-8.571 1.429-12-1h4v-2Z"/><path fill="#4C4D3F" d="M107 60h5v4l-3 1v-3h-2v-2Z"/><path fill="#425648" d="m88 48-3 6h-5v-2l4-1v-2c2-1 2-1 4-1Z"/><path fill="#A2A7AC" d="m100 44 3 1v2l2 1c-1.813.625-1.813.625-4 1l-3-2v-2l2-1Z"/><path fill="#3B4641" d="m105 41 2 1-1 5h-3l-1-4 3-2Z"/><path fill="#28231F" d="M152 37c2.867.573 3.861.861 6 3 .125 3.125.125 3.125 0 6l-3-1 .188-2.313c.071-2.732.071-2.732-1.688-4.5L152 37Z"/><path fill="#5E745E" d="m152 21 3 1c.688 2.063.688 2.063 1 4l-7 1 1-3h2v-3Z"/><path fill="#959174" d="M85 150h7l-1 4-6-1v-3Z"/><path fill="#50764A" d="m22 147 5 1v2l-7 2v-3h2v-2Z"/><path fill="#5B805E" d="M23 143h7l-1 5a250 250 0 0 1-6-4v-1Z"/><path fill="#597A50" d="m43 140 5 1-1 2h-3l-2 4v-2l-2-1h2l1-4Z"/><path fill="#97806C" d="m195 135 2 1c-.75 4.75-.75 4.75-3 7l-1-5h2v-3Z"/><path fill="#687361" d="M179 135h8c-1.313 2-1.313 2-3 4h-3l-2-4Z"/><path fill="#1E2224" d="M141 127h2l1 4h-7l1-3 3 1v-2Z"/><path fill="#44393B" d="m52 111 1 2h2v3l3 1h-8l2-1v-5Z"/><path fill="#3E2D2E" d="m36 110 6 2c-3.996 2.83-7.427 1.762-12 1v-1h6v-2Z"/><path fill="#493C33" d="M204 101h1c-.75 7.75-.75 7.75-3 10l-1-5h2l1-5Z"/><path fill="#42474C" d="M21 97v2h-5v4l-2-1c-.625-2.063-.625-2.063-1-4 5.75-1 5.75-1 8-1Z"/><path fill="#4B3E34" d="M202 87h2c1.688 2.375 1.688 2.375 3 5l-1 2c-1.938-.75-1.938-.75-4-2-.813-2.063-.813-2.063-1-4l1-1Z"/><path fill="#81807B" d="M121 84h10v2l-7-1v2h-3v-3Z"/><path fill="#7B766E" d="M113 84v3l-10-1v-1c3.406-.778 6.508-1.1 10-1Z"/><path fill="#27372D" d="m191 77 2 1v4l-4 1-1-4h3v-2Z"/><path fill="#967C87" d="m76 67 5 1v4h-4l-1-5Z"/><path fill="#4C6158" d="M196 61c2.154 2.622 3.4 4.644 4 8h-2v-3l-6-1 4-4Z"/><path fill="#5B625C" d="M186 51c2.133 2.133 2.532 3.1 3 6-1 1-1 1-4 2-.042-2.333-.04-4.667 0-7l1-1Z"/><path fill="#3E493B" d="m142 45 1 3-2 3-3-1v-4c2-1 2-1 4-1Z"/><path fill="#82937F" d="m105 26-1 6-3 1 1-4h-2v-2c3-1 3-1 5-1Z"/><path fill="#87786B" d="m140 150 2 1 1 3-7 1v-2h4v-3Z"/><path fill="#989877" d="m125 149 2 1c.625 2.563.625 2.563 1 5l-4-1-1-4 2-1Z"/><path fill="#8D7E71" d="m191 144 2 3-2 3-4-1c1.75-3.875 1.75-3.875 4-5Z"/><path fill="#62817B" d="m34 135 1 3h2l-1 3-4-1v-3h2v-2Z"/><path fill="#38201C" d="M159 132h7l-2 3c-2.625.188-2.625.188-5 0v-3Z"/><path fill="#5D5B29" d="M174 128h3v3l-7 1v-2h4v-2Z"/><path fill="#4B453D" d="M177 122c1.875.313 1.875.313 4 1l2 3-1 3v-2l-4-1-1-4Z"/><path fill="#9598A1" d="M17 116h3v6h-3v-6Z"/><path fill="#4A4A4C" d="M145 112h1v10l-1-2h-2l-1-4h2l1-4Z"/><path fill="#42535B" d="m34 90 3 1v6h-3v-7Z"/><path fill="#222723" d="m190 86 2 4-2 2 1 2-3 1v-6h2v-3Z"/><path fill="#4E4C47" d="m133 87 1 3h-10v-2c3.073-.91 5.801-1.089 9-1Z"/><path fill="#424C59" d="m88 80 1 3 3 1c1.34.651 2.676 1.315 4 2h-8v-6Z"/><path fill="#BAC7D6" d="M34 65h2v9l-1-3h-2l1-6Z"/><path fill="#AEB0B6" d="m123 65 7 1v3a101.168 101.168 0 0 1-6-2l-1-2Z"/><path fill="#435149" d="m77 55 3 3-3 1 1 2h-3l-1-5 3-1Z"/><path fill="#59725B" d="m77 46 2 3-3 1-1 2-3-3h3v-2l2-1Z"/><path fill="#8B939C" d="M144 45c1.892 2.386 3.024 4.072 4 7h-4v-7Z"/><path fill="#ADB5B5" d="m116 43 1 4-6 3-1-3 5-1 1-3Z"/><path fill="#797D7F" d="m170 44 4 1h-2v5h-3l1-6Z"/><path fill="#333A31" d="M161 30h2v2h3l1-2 2 4-7-1-1-3Z"/><path fill="#5A6A63" d="m95 27 8 1-1 3-3-1-1 2c-1.5-1.375-1.5-1.375-3-3v-2Z"/><path fill="#7D8F7B" d="m135 22-2 5-1-2h-5v-2c5.75-2.125 5.75-2.125 8-1Z"/><path fill="#C7D5E4" d="M78 21c2.438.813 2.438.813 5 2l1 3-7-1 1-4Z"/><path fill="#202524" d="m56 143 1 4h-7l1-3c3-1 3-1 5-1Z"/><path fill="#608753" d="m17 145 6 1-1 3-5-1v-3Z"/><path fill="#6C9178" d="M26 140c2.625-.188 2.625-.188 5 0l-1 3h-6l2-3Z"/><path fill="#5F7058" d="M175 135h3v4h-9v-1l6-1v-2Z"/><path fill="#B6B4B6" d="M137 131c4.314.48 6.166 1.746 9 5-3.147-.7-6.026-1.76-9-3v-2Z"/><path fill="#95584F" d="M51 122c1.938.313 1.938.313 4 1l1 3h-5v-4Z"/><path fill="#0F1413" d="m195 93 1 6-1-2h-2l-1-2-3 1v-2c2-1 2-1 6-1Z"/><path fill="#3A3F43" d="M178 81c1.945 2.918 2.453 4.625 3 8l-3 1v-9Z"/><path fill="#665D52" d="m181 68 9 1-2 2c-3.063-.25-3.063-.25-6-1l-1-2Z"/><path fill="#617186" d="m166 65 3 1v3h-3v3h-2l2-7Z"/><path fill="#586557" d="m69 62 3 1-2 6h-2l1-7Z"/><path fill="#8290A1" d="m185 60 2 1-1 2v4h-3l-1-3h2l1-4Z"/><path fill="#3F4940" d="m84 58 5 2-2 1v2l-4-1 1-4Z"/><path fill="#859199" d="M180 49c3 3 3 3 3.074 5.262l-.387 2.425-.363 2.45L182 61h-1l-1-12Z"/><path fill="#424744" d="M171 41c1.875.188 1.875.188 4 1 1.25 2.563 1.25 2.563 2 5h-2l-1-2-3-1v-3Z"/><path fill="#527462" d="M138 15c-2 2-2 2-5.625 2.125L129 17v-2c3.069-1.534 5.7-.55 9 0Z"/></svg>